<?xml version="1.0" encoding="UTF-8"?>
<!DOCTYPE svg PUBLIC "-//W3C//DTD SVG 1.1//EN" "http://www.w3.org/Graphics/SVG/1.1/DTD/svg11.dtd">
<svg xmlns="http://www.w3.org/2000/svg" version="1.1" width="2500px" height="2500px" style="shape-rendering:geometricPrecision; text-rendering:geometricPrecision; image-rendering:optimizeQuality; fill-rule:evenodd; clip-rule:evenodd" xmlns:xlink="http://www.w3.org/1999/xlink">
<g><path style="opacity:1" fill="#563d7c" d="M 295.5,-0.5 C 931.5,-0.5 1567.5,-0.5 2203.5,-0.5C 2315.94,12.269 2401.11,66.9357 2459,163.5C 2481.51,204.857 2495.01,248.857 2499.5,295.5C 2499.5,931.5 2499.5,1567.5 2499.5,2203.5C 2486.73,2315.94 2432.06,2401.11 2335.5,2459C 2294.14,2481.51 2250.14,2495.01 2203.5,2499.5C 1567.5,2499.5 931.5,2499.5 295.5,2499.5C 183.06,2486.73 97.8937,2432.06 40,2335.5C 17.4892,2294.14 3.98923,2250.14 -0.5,2203.5C -0.5,1567.5 -0.5,931.5 -0.5,295.5C 12.269,183.06 66.9357,97.8937 163.5,40C 204.857,17.4892 248.857,3.98923 295.5,-0.5 Z"/></g>
<g><path style="opacity:1" fill="#fefefe" d="M 703.5,492.5 C 950.5,492.333 1197.5,492.5 1444.5,493C 1509.38,494.135 1573.38,502.135 1636.5,517C 1693.06,531.116 1744.06,556.116 1789.5,592C 1843.53,640.12 1877.36,699.954 1891,771.5C 1899.9,824.318 1901.24,877.318 1895,930.5C 1882.58,1015.89 1842.08,1084.39 1773.5,1136C 1748.6,1154.03 1722.27,1169.86 1694.5,1183.5C 1846.53,1227.7 1936.7,1327.7 1965,1483.5C 1976.22,1554.89 1972.89,1625.56 1955,1695.5C 1921.14,1803.02 1854.3,1882.85 1754.5,1935C 1698.42,1963.47 1639.42,1983.14 1577.5,1994C 1538.8,2000.88 1499.8,2004.88 1460.5,2006C 1208.17,2006.5 955.834,2006.67 703.5,2006.5C 703.5,1501.83 703.5,997.167 703.5,492.5 Z"/></g>
<g><path style="opacity:1" fill="#563d7c" d="M 1036.5,751.5 C 1147.5,751.333 1258.5,751.5 1369.5,752C 1401.13,752.662 1432.13,757.329 1462.5,766C 1539.79,790.83 1577.79,843.997 1576.5,925.5C 1577.22,960.418 1569.72,993.418 1554,1024.5C 1539.95,1047.12 1521.11,1064.62 1497.5,1077C 1461.17,1095.74 1422.5,1105.07 1381.5,1105C 1266.5,1105.5 1151.5,1105.67 1036.5,1105.5C 1036.5,987.5 1036.5,869.5 1036.5,751.5 Z"/></g>
<g><path style="opacity:1" fill="#563d7c" d="M 1036.5,1332.5 C 1166.17,1332.33 1295.83,1332.5 1425.5,1333C 1470.16,1335.33 1512.16,1347 1551.5,1368C 1595.35,1393.9 1622.18,1432.07 1632,1482.5C 1641.91,1529.2 1640.57,1575.54 1628,1621.5C 1612.17,1667.67 1582,1700.83 1537.5,1721C 1497.55,1737.71 1455.89,1746.38 1412.5,1747C 1287.17,1747.5 1161.83,1747.67 1036.5,1747.5C 1036.5,1609.17 1036.5,1470.83 1036.5,1332.5 Z"/></g>
</svg>
