<?xml version="1.0" encoding="UTF-8"?>
<!DOCTYPE svg PUBLIC "-//W3C//DTD SVG 1.1//EN" "http://www.w3.org/Graphics/SVG/1.1/DTD/svg11.dtd">
<svg xmlns="http://www.w3.org/2000/svg" version="1.1" width="634px" height="630px" style="shape-rendering:geometricPrecision; text-rendering:geometricPrecision; image-rendering:optimizeQuality; fill-rule:evenodd; clip-rule:evenodd" xmlns:xlink="http://www.w3.org/1999/xlink">
<g><path style="opacity:0.995" fill="#e54f26" d="M 38.5,-0.5 C 223.833,-0.5 409.167,-0.5 594.5,-0.5C 577.461,186.759 560.628,374.092 544,561.5C 543.798,563.256 543.298,564.922 542.5,566.5C 467.335,587.339 392.335,608.339 317.5,629.5C 316.167,629.5 314.833,629.5 313.5,629.5C 239.034,608.213 164.367,587.213 89.5,566.5C 71.6005,377.605 54.6005,188.605 38.5,-0.5 Z"/></g>
<g><path style="opacity:1" fill="#f1672b" d="M 314.5,508.5 C 315.791,508.737 316.791,508.404 317.5,507.5C 364.582,495.125 411.582,482.458 458.5,469.5C 464.748,399.185 470.748,328.851 476.5,258.5C 477.404,257.791 477.737,256.791 477.5,255.5C 423.833,255.5 370.167,255.5 316.5,255.5C 316.5,232.167 316.5,208.833 316.5,185.5C 283.833,185.5 251.167,185.5 218.5,185.5C 250.996,184.502 283.662,184.168 316.5,184.5C 372.167,184.5 427.833,184.5 483.5,184.5C 485.831,161.532 487.831,138.532 489.5,115.5C 431.833,115.5 374.167,115.5 316.5,115.5C 258.167,115.5 199.833,115.5 141.5,115.5C 199.664,114.501 257.998,114.168 316.5,114.5C 316.5,91.8333 316.5,69.1667 316.5,46.5C 391.833,46.5 467.167,46.5 542.5,46.5C 528.591,207.184 514.424,367.85 500,528.5C 438.965,546.218 377.799,563.551 316.5,580.5C 317.141,556.271 316.475,532.271 314.5,508.5 Z"/></g>
<g><path style="opacity:1" fill="#ececed" d="M 141.5,115.5 C 199.833,115.5 258.167,115.5 316.5,115.5C 316.5,138.5 316.5,161.5 316.5,184.5C 283.662,184.168 250.996,184.502 218.5,185.5C 220.133,208.865 222.133,232.199 224.5,255.5C 254.995,256.498 285.662,256.831 316.5,256.5C 316.5,279.5 316.5,302.5 316.5,325.5C 264.5,325.5 212.5,325.5 160.5,325.5C 154.046,255.502 147.712,185.502 141.5,115.5 Z"/></g>
<g><path style="opacity:1" fill="#fffefe" d="M 316.5,115.5 C 374.167,115.5 431.833,115.5 489.5,115.5C 487.831,138.532 485.831,161.532 483.5,184.5C 427.833,184.5 372.167,184.5 316.5,184.5C 316.5,161.5 316.5,138.5 316.5,115.5 Z"/></g>
<g><path style="opacity:1" fill="#e54f26" d="M 218.5,185.5 C 251.167,185.5 283.833,185.5 316.5,185.5C 316.5,208.833 316.5,232.167 316.5,255.5C 285.833,255.5 255.167,255.5 224.5,255.5C 222.133,232.199 220.133,208.865 218.5,185.5 Z"/></g>
<g><path style="opacity:1" fill="#f8d0b8" d="M 224.5,255.5 C 255.167,255.5 285.833,255.5 316.5,255.5C 370.167,255.5 423.833,255.5 477.5,255.5C 477.737,256.791 477.404,257.791 476.5,258.5C 423.51,256.504 370.177,255.838 316.5,256.5C 285.662,256.831 254.995,256.498 224.5,255.5 Z"/></g>
<g><path style="opacity:1" fill="#fffefe" d="M 316.5,256.5 C 370.177,255.838 423.51,256.504 476.5,258.5C 470.748,328.851 464.748,399.185 458.5,469.5C 411.582,482.458 364.582,495.125 317.5,507.5C 316.173,483.598 316.173,459.598 317.5,435.5C 342.834,428.833 368.167,422.166 393.5,415.5C 395.928,385.792 398.595,356.125 401.5,326.5C 373.175,325.5 344.841,325.167 316.5,325.5C 316.5,302.5 316.5,279.5 316.5,256.5 Z"/></g>
<g><path style="opacity:1" fill="#f1672b" d="M 316.5,325.5 C 344.841,325.167 373.175,325.5 401.5,326.5C 398.595,356.125 395.928,385.792 393.5,415.5C 368.167,422.166 342.834,428.833 317.5,435.5C 317.167,435.5 316.833,435.5 316.5,435.5C 316.5,398.833 316.5,362.167 316.5,325.5 Z"/></g>
<g><path style="opacity:1" fill="#eb9f7c" d="M 233.5,360.5 C 210.5,360.5 187.5,360.5 164.5,360.5C 164.5,362.5 164.5,364.5 164.5,366.5C 163.532,364.393 163.198,362.059 163.5,359.5C 187.006,359.169 210.339,359.502 233.5,360.5 Z"/></g>
<g><path style="opacity:1" fill="#ececed" d="M 233.5,360.5 C 235.1,379.096 237.1,397.596 239.5,416C 265.055,423.02 290.722,429.52 316.5,435.5C 316.833,435.5 317.167,435.5 317.5,435.5C 316.173,459.598 316.173,483.598 317.5,507.5C 316.791,508.404 315.791,508.737 314.5,508.5C 267.773,495.754 221.107,482.754 174.5,469.5C 173.178,464.929 172.345,460.262 172,455.5C 169.589,425.817 167.089,396.151 164.5,366.5C 164.5,364.5 164.5,362.5 164.5,360.5C 187.5,360.5 210.5,360.5 233.5,360.5 Z"/></g>
</svg>
