<?xml version="1.0" encoding="UTF-8"?>
<!DOCTYPE svg PUBLIC "-//W3C//DTD SVG 1.1//EN" "http://www.w3.org/Graphics/SVG/1.1/DTD/svg11.dtd">
<svg xmlns="http://www.w3.org/2000/svg" version="1.1" width="634px" height="630px" style="shape-rendering:geometricPrecision; text-rendering:geometricPrecision; image-rendering:optimizeQuality; fill-rule:evenodd; clip-rule:evenodd" xmlns:xlink="http://www.w3.org/1999/xlink">
<g><path style="opacity:0.993" fill="#fefffe" d="M 289.5,32.5 C 389.868,26.2892 472.368,61.2892 537,137.5C 596.289,216.21 612.622,303.21 586,398.5C 565.05,463.432 526.05,514.432 469,551.5C 394.356,439.828 320.023,327.828 246,215.5C 244.457,213.622 242.624,212.122 240.5,211C 232.833,210.333 225.167,210.333 217.5,211C 215.376,212.122 213.543,213.622 212,215.5C 211.288,289.167 210.955,362.834 211,436.5C 214.112,443.805 219.612,446.472 227.5,444.5C 233.689,445.625 238.856,443.959 243,439.5C 243.979,383.389 244.979,327.389 246,271.5C 283.333,326.833 320.667,382.167 358,437.5C 388.833,479 419.667,520.5 450.5,562C 418.564,580.2 384.231,591.2 347.5,595C 235.229,603.398 146.396,562.231 81,471.5C 33.3413,396.559 21.6747,316.225 46,230.5C 80.4227,130.077 148.923,66.2434 251.5,39C 264.218,36.2698 276.885,34.1032 289.5,32.5 Z M 391.5,202.5 C 398.175,202.334 404.842,202.5 411.5,203C 414.756,204.587 416.923,207.087 418,210.5C 418.667,276.167 418.667,341.833 418,407.5C 407,390.5 396,373.5 385,356.5C 384.333,307.833 384.333,259.167 385,210.5C 386.277,207.062 388.443,204.395 391.5,202.5 Z"/></g>
</svg>
