<?xml version="1.0" encoding="UTF-8"?>
<!DOCTYPE svg PUBLIC "-//W3C//DTD SVG 1.1//EN" "http://www.w3.org/Graphics/SVG/1.1/DTD/svg11.dtd">
<svg xmlns="http://www.w3.org/2000/svg" version="1.1" width="634px" height="630px" style="shape-rendering:geometricPrecision; text-rendering:geometricPrecision; image-rendering:optimizeQuality; fill-rule:evenodd; clip-rule:evenodd" xmlns:xlink="http://www.w3.org/1999/xlink">
<g><path style="opacity:0.995" fill="#103054" d="M -0.5,116.5 C 32.5067,116.167 65.5067,116.5 98.5,117.5C 100.954,120.404 102.287,123.738 102.5,127.5C 104.143,127.48 105.476,128.147 106.5,129.5C 110.765,136.365 114.765,143.365 118.5,150.5C 120.083,152.99 121.083,155.657 121.5,158.5C 123.179,158.285 124.179,158.952 124.5,160.5C 124.5,161.833 125.167,162.5 126.5,162.5C 127.565,165.629 128.898,168.629 130.5,171.5C 130.5,172.833 131.167,173.5 132.5,173.5C 135.186,179.223 137.852,184.89 140.5,190.5C 141.5,190.5 142.5,190.5 143.5,190.5C 146.049,195.271 148.382,200.271 150.5,205.5C 153.167,209.5 155.833,213.5 158.5,217.5C 159.452,219.045 159.785,220.712 159.5,222.5C 160.5,222.5 161.5,222.5 162.5,222.5C 167.149,232.272 172.149,241.938 177.5,251.5C 178.524,252.853 179.857,253.52 181.5,253.5C 182.13,256.582 183.13,259.582 184.5,262.5C 188.928,269.26 192.928,276.26 196.5,283.5C 197.524,284.853 198.857,285.52 200.5,285.5C 200.917,288.343 201.917,291.01 203.5,293.5C 207.235,300.635 211.235,307.635 215.5,314.5C 216.452,316.045 216.785,317.712 216.5,319.5C 218.143,319.48 219.476,320.147 220.5,321.5C 225.151,328.783 229.151,336.45 232.5,344.5C 232.837,310.49 233.837,276.823 235.5,243.5C 235.5,244.833 236.167,245.5 237.5,245.5C 237.821,247.048 238.821,247.715 240.5,247.5C 242.739,251.65 244.739,255.983 246.5,260.5C 246.5,261.833 247.167,262.5 248.5,262.5C 250.379,266.725 252.713,270.725 255.5,274.5C 256.524,275.853 257.857,276.52 259.5,276.5C 259.215,278.288 259.548,279.955 260.5,281.5C 265.591,288.921 270.258,296.588 274.5,304.5C 275.524,305.853 276.857,306.52 278.5,306.5C 278.614,308.718 279.28,310.718 280.5,312.5C 280.5,313.833 281.167,314.5 282.5,314.5C 286.5,321.833 290.5,329.167 294.5,336.5C 295.5,336.5 296.5,336.5 297.5,336.5C 297.917,339.343 298.917,342.01 300.5,344.5C 305.377,351.21 309.71,358.21 313.5,365.5C 313.821,367.048 314.821,367.715 316.5,367.5C 316.5,369.5 316.5,371.5 316.5,373.5C 315.5,373.5 314.5,373.5 313.5,373.5C 313.785,375.288 313.452,376.955 312.5,378.5C 307.069,385.695 302.402,393.362 298.5,401.5C 297.476,402.853 296.143,403.52 294.5,403.5C 289.195,413.439 283.862,423.439 278.5,433.5C 277.5,433.5 276.5,433.5 275.5,433.5C 272.126,440.578 268.46,447.578 264.5,454.5C 262.671,456.156 261.337,458.156 260.5,460.5C 259.476,461.853 258.143,462.52 256.5,462.5C 255.87,465.582 254.87,468.582 253.5,471.5C 250.167,476.167 246.833,480.833 243.5,485.5C 242.13,488.418 241.13,491.418 240.5,494.5C 237.043,494.96 235.377,496.96 235.5,500.5C 233.508,500.672 231.842,500.005 230.5,498.5C 227.616,494.282 224.949,489.948 222.5,485.5C 220.917,483.01 219.917,480.343 219.5,477.5C 217.857,477.52 216.524,476.853 215.5,475.5C 210.833,466.833 206.167,458.167 201.5,449.5C 200.476,448.147 199.143,447.48 197.5,447.5C 197.083,444.657 196.083,441.99 194.5,439.5C 189.353,432.197 185.02,424.53 181.5,416.5C 179.821,416.715 178.821,416.048 178.5,414.5C 178.715,412.821 178.048,411.821 176.5,411.5C 171.586,403.342 166.919,395.009 162.5,386.5C 162.179,384.952 161.179,384.285 159.5,384.5C 155.054,376.056 150.387,367.722 145.5,359.5C 145.5,358.167 144.833,357.5 143.5,357.5C 143.5,356.5 143.5,355.5 143.5,354.5C 142.5,354.5 141.5,354.5 140.5,354.5C 136.768,346.702 132.768,339.035 128.5,331.5C 128.5,330.167 127.833,329.5 126.5,329.5C 125.28,327.718 124.614,325.718 124.5,323.5C 122.857,323.52 121.524,322.853 120.5,321.5C 118.245,315.335 115.245,309.669 111.5,304.5C 111.5,303.167 110.833,302.5 109.5,302.5C 108.407,300.272 107.407,297.939 106.5,295.5C 105.476,294.147 104.143,293.48 102.5,293.5C 101.91,289.653 100.243,286.32 97.5,283.5C 96.5713,284.689 96.238,286.022 96.5,287.5C 96.5,297.5 96.5,307.5 96.5,317.5C 96.5,382.167 96.5,446.833 96.5,511.5C 64.1667,511.5 31.8333,511.5 -0.5,511.5C -0.5,510.833 -0.5,510.167 -0.5,509.5C 31.1667,509.5 62.8333,509.5 94.5,509.5C 94.8333,432.83 94.5,356.164 93.5,279.5C 92.5,355.164 92.1667,430.83 92.5,506.5C 61.5,506.5 30.5,506.5 -0.5,506.5C -0.5,376.5 -0.5,246.5 -0.5,116.5 Z"/></g>
<g><path style="opacity:0.983" fill="#102f53" d="M 233.5,215.5 C 265.678,217.469 298.012,218.135 330.5,217.5C 330.5,184.5 330.5,151.5 330.5,118.5C 298.826,118.167 267.16,118.5 235.5,119.5C 266.493,120.5 297.493,120.833 328.5,120.5C 328.5,152.167 328.5,183.833 328.5,215.5C 298.167,215.5 267.833,215.5 237.5,215.5C 237.832,202.816 237.499,190.149 236.5,177.5C 235.735,178.612 234.735,179.279 233.5,179.5C 233.5,158.5 233.5,137.5 233.5,116.5C 266.5,116.5 299.5,116.5 332.5,116.5C 332.5,150.833 332.5,185.167 332.5,219.5C 299.5,219.5 266.5,219.5 233.5,219.5C 233.5,218.167 233.5,216.833 233.5,215.5 Z"/></g>
<g><path style="opacity:1" fill="#13335a" d="M 233.5,215.5 C 233.5,203.5 233.5,191.5 233.5,179.5C 234.735,179.279 235.735,178.612 236.5,177.5C 237.499,190.149 237.832,202.816 237.5,215.5C 267.833,215.5 298.167,215.5 328.5,215.5C 328.5,183.833 328.5,152.167 328.5,120.5C 297.493,120.833 266.493,120.5 235.5,119.5C 267.16,118.5 298.826,118.167 330.5,118.5C 330.5,151.5 330.5,184.5 330.5,217.5C 298.012,218.135 265.678,217.469 233.5,215.5 Z"/></g>
<g><path style="opacity:0.004" fill="#185a64" d="M 124.5,160.5 C 125.833,160.5 126.5,161.167 126.5,162.5C 126.5,161.167 125.833,160.5 124.5,160.5 Z"/></g>
<g><path style="opacity:0.004" fill="#185a64" d="M 130.5,171.5 C 131.833,171.5 132.5,172.167 132.5,173.5C 132.5,172.167 131.833,171.5 130.5,171.5 Z"/></g>
<g><path style="opacity:0.99" fill="#103054" d="M 377.5,281.5 C 378.833,281.5 379.5,280.833 379.5,279.5C 379.281,278.325 379.614,277.325 380.5,276.5C 387.461,270.088 394.127,263.422 400.5,256.5C 407.244,253.137 413.578,249.137 419.5,244.5C 421.99,242.917 424.657,241.917 427.5,241.5C 427.5,240.5 427.5,239.5 427.5,238.5C 434.86,236.48 442.193,234.48 449.5,232.5C 450.833,232.5 451.5,231.833 451.5,230.5C 471.656,226.69 491.989,225.69 512.5,227.5C 525.495,230.167 538.162,233.833 550.5,238.5C 550.5,239.5 550.5,240.5 550.5,241.5C 554.898,242.86 559.231,244.527 563.5,246.5C 567.5,249.167 571.5,251.833 575.5,254.5C 577.69,256.007 579.024,258.007 579.5,260.5C 582.453,262.089 585.453,263.756 588.5,265.5C 591.902,270.217 595.235,274.883 598.5,279.5C 599.675,279.281 600.675,279.614 601.5,280.5C 603.108,284.043 605.442,287.043 608.5,289.5C 611.589,295.883 614.589,302.216 617.5,308.5C 618.5,308.5 619.5,308.5 620.5,308.5C 622.044,315.733 624.377,322.733 627.5,329.5C 629.279,335.726 630.279,342.06 630.5,348.5C 630.5,349.833 631.167,350.5 632.5,350.5C 632.832,360.522 632.499,370.522 631.5,380.5C 625.069,392.342 615.735,395.342 603.5,389.5C 600.713,387.308 598.047,384.975 595.5,382.5C 593.472,376.324 592.139,369.99 591.5,363.5C 590.655,359.649 588.322,357.649 584.5,357.5C 584.52,355.857 583.853,354.524 582.5,353.5C 578.821,352.401 575.154,351.401 571.5,350.5C 571.5,349.167 570.833,348.5 569.5,348.5C 564.323,347.448 559.323,345.782 554.5,343.5C 552.039,340.69 549.372,338.357 546.5,336.5C 546.715,334.821 546.048,333.821 544.5,333.5C 539.56,327.532 534.893,321.199 530.5,314.5C 519.76,303.697 506.76,299.03 491.5,300.5C 465.585,299.788 445.585,310.122 431.5,331.5C 430.548,333.045 430.215,334.712 430.5,336.5C 429.5,336.5 428.5,336.5 427.5,336.5C 426.048,341.859 424.381,347.192 422.5,352.5C 421.167,360.5 421.167,368.5 422.5,376.5C 424.689,379.656 426.356,382.989 427.5,386.5C 429.143,386.48 430.476,387.147 431.5,388.5C 435.402,396.638 440.069,404.305 445.5,411.5C 446.452,413.045 446.785,414.712 446.5,416.5C 447.5,416.5 448.5,416.5 449.5,416.5C 449.238,417.978 449.571,419.311 450.5,420.5C 455.589,427.876 460.255,435.542 464.5,443.5C 465.524,444.853 466.857,445.52 468.5,445.5C 468.238,446.978 468.571,448.311 469.5,449.5C 474.689,457.214 479.356,465.214 483.5,473.5C 484.524,474.853 485.857,475.52 487.5,475.5C 487.614,477.718 488.28,479.718 489.5,481.5C 489.5,482.833 490.167,483.5 491.5,483.5C 495.235,490.635 499.235,497.635 503.5,504.5C 503.821,506.048 504.821,506.715 506.5,506.5C 506.48,508.143 507.147,509.476 508.5,510.5C 492.333,510.833 476.167,511.167 460,511.5C 442.72,511.458 425.554,510.791 408.5,509.5C 408.785,507.712 408.452,506.045 407.5,504.5C 404.167,499.833 400.833,495.167 397.5,490.5C 395.743,486.784 394.076,483.117 392.5,479.5C 390.857,479.52 389.524,478.853 388.5,477.5C 383.473,469.15 378.473,460.816 373.5,452.5C 373.5,451.5 373.5,450.5 373.5,449.5C 372.5,449.5 371.5,449.5 370.5,449.5C 370.5,450.5 370.5,451.5 370.5,452.5C 367.275,458.072 363.608,463.406 359.5,468.5C 357.743,472.216 356.076,475.883 354.5,479.5C 352.857,479.48 351.524,480.147 350.5,481.5C 349.473,483.553 348.473,485.553 347.5,487.5C 345.952,487.821 345.285,488.821 345.5,490.5C 342.947,495.4 339.947,500.067 336.5,504.5C 335.548,506.045 335.215,507.712 335.5,509.5C 318.446,510.791 301.28,511.458 284,511.5C 267.833,511.167 251.667,510.833 235.5,510.5C 237.104,508.821 237.771,506.821 237.5,504.5C 239.143,504.52 240.476,503.853 241.5,502.5C 245.455,496.247 249.121,489.914 252.5,483.5C 253.833,483.5 254.5,482.833 254.5,481.5C 255.72,479.718 256.386,477.718 256.5,475.5C 258.143,475.52 259.476,474.853 260.5,473.5C 264.644,465.214 269.311,457.214 274.5,449.5C 275.429,448.311 275.762,446.978 275.5,445.5C 277.143,445.52 278.476,444.853 279.5,443.5C 283.745,435.542 288.411,427.876 293.5,420.5C 294.429,419.311 294.762,417.978 294.5,416.5C 295.5,416.5 296.5,416.5 297.5,416.5C 297.215,414.712 297.548,413.045 298.5,411.5C 301.947,407.067 304.947,402.4 307.5,397.5C 308.833,397.5 309.5,396.833 309.5,395.5C 310.201,393.092 311.201,390.758 312.5,388.5C 313.524,387.147 314.857,386.48 316.5,386.5C 318.739,382.35 320.739,378.017 322.5,373.5C 323.833,373.5 324.5,372.833 324.5,371.5C 322.277,365.615 319.61,359.948 316.5,354.5C 315.5,354.5 314.5,354.5 313.5,354.5C 310.126,347.422 306.46,340.422 302.5,333.5C 300.671,331.844 299.337,329.844 298.5,327.5C 297.476,326.147 296.143,325.48 294.5,325.5C 294.083,322.657 293.083,319.99 291.5,317.5C 286.625,310.406 282.292,303.073 278.5,295.5C 278.179,293.952 277.179,293.285 275.5,293.5C 271.235,286.635 267.235,279.635 263.5,272.5C 263.5,271.167 262.833,270.5 261.5,270.5C 260.28,268.718 259.614,266.718 259.5,264.5C 257.857,264.52 256.524,263.853 255.5,262.5C 250.875,254.526 246.209,246.526 241.5,238.5C 240.571,237.311 240.238,235.978 240.5,234.5C 237.931,234.262 236.265,232.929 235.5,230.5C 235.5,229.167 234.833,228.5 233.5,228.5C 249.653,227.167 266.153,226.5 283,226.5C 300.613,226.541 318.113,227.208 335.5,228.5C 335.238,229.978 335.571,231.311 336.5,232.5C 341.423,240.014 346.09,247.681 350.5,255.5C 351.524,256.853 352.857,257.52 354.5,257.5C 354.215,259.288 354.548,260.955 355.5,262.5C 360.931,269.695 365.598,277.362 369.5,285.5C 370.216,286.311 371.05,286.978 372,287.5C 374.408,285.93 376.241,283.93 377.5,281.5 Z"/></g>
<g><path style="opacity:0.004" fill="#185a64" d="M 233.5,228.5 C 234.833,228.5 235.5,229.167 235.5,230.5C 234.167,230.5 233.5,229.833 233.5,228.5 Z"/></g>
<g><path style="opacity:0.004" fill="#185a64" d="M 451.5,230.5 C 451.5,231.833 450.833,232.5 449.5,232.5C 449.5,231.167 450.167,230.5 451.5,230.5 Z"/></g>
<g><path style="opacity:0.004" fill="#185a64" d="M 235.5,243.5 C 236.833,243.5 237.5,244.167 237.5,245.5C 237.5,244.167 236.833,243.5 235.5,243.5 Z"/></g>
<g><path style="opacity:0.004" fill="#185a64" d="M 246.5,260.5 C 247.833,260.5 248.5,261.167 248.5,262.5C 248.5,261.167 247.833,260.5 246.5,260.5 Z"/></g>
<g><path style="opacity:0.004" fill="#185a64" d="M 261.5,270.5 C 262.833,270.5 263.5,271.167 263.5,272.5C 262.167,272.5 261.5,271.833 261.5,270.5 Z"/></g>
<g><path style="opacity:1" fill="#133259" d="M -0.5,509.5 C -0.5,508.5 -0.5,507.5 -0.5,506.5C 30.5,506.5 61.5,506.5 92.5,506.5C 92.1667,430.83 92.5,355.164 93.5,279.5C 94.5,356.164 94.8333,432.83 94.5,509.5C 62.8333,509.5 31.1667,509.5 -0.5,509.5 Z"/></g>
<g><path style="opacity:0.004" fill="#185a64" d="M 379.5,279.5 C 379.5,280.833 378.833,281.5 377.5,281.5C 377.5,280.167 378.167,279.5 379.5,279.5 Z"/></g>
<g><path style="opacity:0.004" fill="#185a64" d="M 96.5,287.5 C 97.8275,292.119 98.4942,297.119 98.5,302.5C 98.4942,307.881 97.8275,312.881 96.5,317.5C 96.5,307.5 96.5,297.5 96.5,287.5 Z"/></g>
<g><path style="opacity:0.004" fill="#185a64" d="M 275.5,293.5 C 277.179,293.285 278.179,293.952 278.5,295.5C 276.821,295.715 275.821,295.048 275.5,293.5 Z"/></g>
<g><path style="opacity:0.004" fill="#185a64" d="M 109.5,302.5 C 110.833,302.5 111.5,303.167 111.5,304.5C 110.167,304.5 109.5,303.833 109.5,302.5 Z"/></g>
<g><path style="opacity:1" fill="#48c6e8" d="M 588.5,380.5 C 588.5,379.167 587.833,378.5 586.5,378.5C 583.564,377.594 580.564,376.928 577.5,376.5C 577.5,375.5 577.5,374.5 577.5,373.5C 576.022,373.762 574.689,373.429 573.5,372.5C 568.496,366.704 562.162,364.37 554.5,365.5C 553.167,365.5 551.833,365.5 550.5,365.5C 547.756,365.752 545.256,365.085 543,363.5C 542.05,364.022 541.216,364.689 540.5,365.5C 535.411,358.124 530.745,350.458 526.5,342.5C 522.702,340.377 520.036,337.377 518.5,333.5C 506.678,326.617 493.845,322.617 480,321.5C 468.19,322.124 457.023,325.124 446.5,330.5C 444.31,332.007 442.976,334.007 442.5,336.5C 441.022,336.238 439.689,336.571 438.5,337.5C 436.013,339.809 434.013,342.476 432.5,345.5C 430.955,346.452 429.288,346.785 427.5,346.5C 427.5,345.167 427.5,343.833 427.5,342.5C 429.143,342.52 430.476,341.853 431.5,340.5C 435.592,331.066 441.926,323.399 450.5,317.5C 451.386,316.675 451.719,315.675 451.5,314.5C 453.718,314.386 455.718,313.72 457.5,312.5C 458.833,312.5 459.5,311.833 459.5,310.5C 469.579,305.78 480.245,303.78 491.5,304.5C 504.576,303.195 516.242,306.529 526.5,314.5C 531.997,321.325 536.663,328.658 540.5,336.5C 550.112,346.473 561.779,352.473 575.5,354.5C 575.5,355.5 575.5,356.5 575.5,357.5C 585.19,358.691 590.19,364.191 590.5,374C 590.467,376.61 589.8,378.777 588.5,380.5 Z"/></g>
<g><path style="opacity:0.004" fill="#185a64" d="M 459.5,310.5 C 459.5,311.833 458.833,312.5 457.5,312.5C 457.5,311.167 458.167,310.5 459.5,310.5 Z"/></g>
<g><path style="opacity:0.004" fill="#185a64" d="M 280.5,312.5 C 281.833,312.5 282.5,313.167 282.5,314.5C 282.5,313.167 281.833,312.5 280.5,312.5 Z"/></g>
<g><path style="opacity:0.004" fill="#185a64" d="M 472.5,325.5 C 472.5,326.833 471.833,327.5 470.5,327.5C 470.5,326.167 471.167,325.5 472.5,325.5 Z"/></g>
<g><path style="opacity:0.974" fill="#98d9eb" d="M 472.5,325.5 C 477.5,325.5 482.5,325.5 487.5,325.5C 487.5,326.833 488.167,327.5 489.5,327.5C 493.63,327.534 497.63,328.201 501.5,329.5C 501.5,330.833 502.167,331.5 503.5,331.5C 505.737,332.449 508.071,333.116 510.5,333.5C 510.5,334.5 510.5,335.5 510.5,336.5C 511.978,336.238 513.311,336.571 514.5,337.5C 517.857,341.192 521.524,344.525 525.5,347.5C 527.005,348.842 527.672,350.508 527.5,352.5C 513.344,353.095 500.011,350.095 487.5,343.5C 482,342.5 476.5,341.5 471,340.5C 465.821,341.436 460.654,342.436 455.5,343.5C 447.947,346.44 440.947,350.107 434.5,354.5C 434.494,359.013 432.327,362.013 428,363.5C 426.624,363.316 425.791,362.649 425.5,361.5C 426.833,361.5 427.5,360.833 427.5,359.5C 427.821,357.952 428.821,357.285 430.5,357.5C 430.215,355.712 430.548,354.045 431.5,352.5C 435.086,346.909 439.42,341.909 444.5,337.5C 446.045,336.548 447.712,336.215 449.5,336.5C 449.5,335.5 449.5,334.5 449.5,333.5C 453.686,332.411 457.686,330.744 461.5,328.5C 464.428,327.516 467.428,327.183 470.5,327.5C 471.833,327.5 472.5,326.833 472.5,325.5 Z"/></g>
<g><path style="opacity:0.004" fill="#185a64" d="M 487.5,325.5 C 488.833,325.5 489.5,326.167 489.5,327.5C 489.5,326.167 488.833,325.5 487.5,325.5 Z"/></g>
<g><path style="opacity:0.004" fill="#185a64" d="M 126.5,329.5 C 127.833,329.5 128.5,330.167 128.5,331.5C 127.167,331.5 126.5,330.833 126.5,329.5 Z"/></g>
<g><path style="opacity:0.004" fill="#185a64" d="M 501.5,329.5 C 502.833,329.5 503.5,330.167 503.5,331.5C 503.5,330.167 502.833,329.5 501.5,329.5 Z"/></g>
<g><path style="opacity:0.004" fill="#185a64" d="M 544.5,333.5 C 546.048,333.821 546.715,334.821 546.5,336.5C 544.952,336.179 544.285,335.179 544.5,333.5 Z"/></g>
<g><path style="opacity:0.004" fill="#185a64" d="M 569.5,348.5 C 570.833,348.5 571.5,349.167 571.5,350.5C 570.167,350.5 569.5,349.833 569.5,348.5 Z"/></g>
<g><path style="opacity:0.004" fill="#185a64" d="M 630.5,348.5 C 631.833,348.5 632.5,349.167 632.5,350.5C 632.5,349.167 631.833,348.5 630.5,348.5 Z"/></g>
<g><path style="opacity:0.004" fill="#185a64" d="M 143.5,357.5 C 144.833,357.5 145.5,358.167 145.5,359.5C 144.167,359.5 143.5,358.833 143.5,357.5 Z"/></g>
<g><path style="opacity:0.004" fill="#185a64" d="M 427.5,359.5 C 427.5,360.833 426.833,361.5 425.5,361.5C 425.5,360.167 426.167,359.5 427.5,359.5 Z"/></g>
<g><path style="opacity:0.004" fill="#185a64" d="M 313.5,365.5 C 315.179,365.285 316.179,365.952 316.5,367.5C 314.821,367.715 313.821,367.048 313.5,365.5 Z"/></g>
<g><path style="opacity:0.004" fill="#185a64" d="M 550.5,365.5 C 551.833,365.5 553.167,365.5 554.5,365.5C 554.38,366.586 553.713,367.253 552.5,367.5C 551.287,367.253 550.62,366.586 550.5,365.5 Z"/></g>
<g><path style="opacity:0.004" fill="#185a64" d="M 324.5,371.5 C 324.5,372.833 323.833,373.5 322.5,373.5C 322.5,372.167 323.167,371.5 324.5,371.5 Z"/></g>
<g><path style="opacity:0.004" fill="#185a64" d="M 586.5,378.5 C 587.833,378.5 588.5,379.167 588.5,380.5C 587.167,380.5 586.5,379.833 586.5,378.5 Z"/></g>
<g><path style="opacity:0.004" fill="#185a64" d="M 159.5,384.5 C 161.179,384.285 162.179,384.952 162.5,386.5C 160.821,386.715 159.821,386.048 159.5,384.5 Z"/></g>
<g><path style="opacity:0.004" fill="#185a64" d="M 309.5,395.5 C 309.5,396.833 308.833,397.5 307.5,397.5C 307.5,396.167 308.167,395.5 309.5,395.5 Z"/></g>
<g><path style="opacity:0.819" fill="#113055" d="M 630.5,390.5 C 631.818,393.258 632.485,396.424 632.5,400C 632.758,406.688 631.091,412.854 627.5,418.5C 622.422,423.24 617.088,423.573 611.5,419.5C 608.949,414.745 609.282,410.078 612.5,405.5C 618.03,402.823 623.364,399.823 628.5,396.5C 630.104,394.821 630.771,392.821 630.5,390.5 Z"/></g>
<g><path style="opacity:0.004" fill="#185a64" d="M 176.5,411.5 C 178.048,411.821 178.715,412.821 178.5,414.5C 176.952,414.179 176.285,413.179 176.5,411.5 Z"/></g>
<g><path style="opacity:0.004" fill="#185a64" d="M 373.5,452.5 C 372.5,452.5 371.5,452.5 370.5,452.5C 370.5,451.5 370.5,450.5 370.5,449.5C 371.5,449.5 372.5,449.5 373.5,449.5C 373.5,450.5 373.5,451.5 373.5,452.5 Z"/></g>
<g><path style="opacity:0.004" fill="#185a64" d="M 254.5,481.5 C 254.5,482.833 253.833,483.5 252.5,483.5C 252.5,482.167 253.167,481.5 254.5,481.5 Z"/></g>
<g><path style="opacity:0.004" fill="#185a64" d="M 489.5,481.5 C 490.833,481.5 491.5,482.167 491.5,483.5C 491.5,482.167 490.833,481.5 489.5,481.5 Z"/></g>
<g><path style="opacity:0.004" fill="#185a64" d="M 347.5,487.5 C 347.715,489.179 347.048,490.179 345.5,490.5C 345.285,488.821 345.952,487.821 347.5,487.5 Z"/></g>
<g><path style="opacity:0.004" fill="#185a64" d="M 503.5,504.5 C 505.179,504.285 506.179,504.952 506.5,506.5C 504.821,506.715 503.821,506.048 503.5,504.5 Z"/></g>
</svg>
