<?xml version="1.0" encoding="UTF-8"?>
<!DOCTYPE svg PUBLIC "-//W3C//DTD SVG 1.1//EN" "http://www.w3.org/Graphics/SVG/1.1/DTD/svg11.dtd">
<svg xmlns="http://www.w3.org/2000/svg" version="1.1" width="376px" height="244px" style="shape-rendering:geometricPrecision; text-rendering:geometricPrecision; image-rendering:optimizeQuality; fill-rule:evenodd; clip-rule:evenodd" xmlns:xlink="http://www.w3.org/1999/xlink">
<g><path style="opacity:0.985" fill="#f54150" d="M 187.5,-0.5 C 193.5,-0.5 199.5,-0.5 205.5,-0.5C 219.573,3.06988 229.073,11.7365 234,25.5C 234.973,35.3257 235.806,45.159 236.5,55C 237.763,66.9241 244.097,74.5908 255.5,78C 264.791,79.33 274.124,80.33 283.5,81C 301.991,84.8244 313.158,95.991 317,114.5C 319.576,134.178 312.743,149.678 296.5,161C 292.354,162.937 288.021,164.271 283.5,165C 274.124,165.67 264.791,166.67 255.5,168C 247.913,169.918 242.413,174.418 239,181.5C 236.47,195.155 232.803,208.488 228,221.5C 218.145,237.841 203.645,244.675 184.5,242C 161.838,235.852 151.004,221.019 152,197.5C 155.873,176.961 168.207,165.295 189,162.5C 198.862,161.164 208.696,159.664 218.5,158C 227.237,155.596 233.071,150.096 236,141.5C 242.389,120.774 238.556,102.274 224.5,86C 221.508,83.8899 218.175,82.5566 214.5,82C 199.198,81.8443 184.865,78.1777 171.5,71C 156.629,58.0163 152.462,42.183 159,23.5C 164.762,10.8927 174.262,2.89266 187.5,-0.5 Z"/></g>
<g><path style="opacity:0.982" fill="#111111" d="M 105.5,82.5 C 130.311,81.3051 145.811,92.6384 152,116.5C 153.95,137.859 145.116,152.692 125.5,161C 99.0654,166.87 81.5654,157.036 73,131.5C 70.3712,106.061 81.2045,89.7275 105.5,82.5 Z"/></g>
<g><path style="opacity:0.983" fill="#111111" d="M 48.5,243.5 C 42.5,243.5 36.5,243.5 30.5,243.5C 14.5,238.833 4.16667,228.5 -0.5,212.5C -0.5,206.5 -0.5,200.5 -0.5,194.5C 8.85407,168.986 26.8541,159.486 53.5,166C 74.0122,175.857 82.1789,192.024 78,214.5C 72.9158,229.085 63.0824,238.752 48.5,243.5 Z"/></g>
<g><path style="opacity:0.982" fill="#111111" d="M 342.5,243.5 C 336.833,243.5 331.167,243.5 325.5,243.5C 300.088,234.687 290.254,217.02 296,190.5C 306.501,167.669 324.001,159.502 348.5,166C 371.18,177.358 378.68,195.192 371,219.5C 365.238,232.107 355.738,240.107 342.5,243.5 Z"/></g>
</svg>
