<?xml version="1.0" encoding="UTF-8"?>
<!DOCTYPE svg PUBLIC "-//W3C//DTD SVG 1.1//EN" "http://www.w3.org/Graphics/SVG/1.1/DTD/svg11.dtd">
<svg xmlns="http://www.w3.org/2000/svg" version="1.1" width="634px" height="630px" style="shape-rendering:geometricPrecision; text-rendering:geometricPrecision; image-rendering:optimizeQuality; fill-rule:evenodd; clip-rule:evenodd" xmlns:xlink="http://www.w3.org/1999/xlink">
<g><path style="opacity:0.998" fill="#6bc9e9" d="M 573.5,237.5 C 573.821,239.048 574.821,239.715 576.5,239.5C 598.505,251.338 615.338,268.338 627,290.5C 635.387,315.615 631.054,338.282 614,358.5C 593.711,378.775 570.211,394.275 543.5,405C 529.654,410.337 515.654,415.171 501.5,419.5C 501.167,420.167 500.833,420.833 500.5,421.5C 506.91,446.943 510.576,472.776 511.5,499C 512.051,522.547 506.884,544.713 496,565.5C 483.216,585.309 465.05,594.642 441.5,593.5C 428.674,594.14 416.34,591.973 404.5,587C 390.327,580.753 376.993,573.253 364.5,564.5C 364.027,563.094 363.027,562.427 361.5,562.5C 359.77,561.974 358.436,560.974 357.5,559.5C 357.027,558.094 356.027,557.427 354.5,557.5C 350.518,554.848 346.851,551.848 343.5,548.5C 343.027,547.094 342.027,546.427 340.5,546.5C 332.538,539.708 324.704,532.708 317,525.5C 292.044,550.807 263.544,570.974 231.5,586C 210.241,594.352 188.575,595.685 166.5,590C 163.609,588.726 160.942,587.226 158.5,585.5C 158.027,584.094 157.027,583.427 155.5,583.5C 142.78,574.1 133.946,561.767 129,546.5C 122.531,522.185 120.864,497.518 124,472.5C 125.928,455.098 129.095,437.931 133.5,421C 123.838,416.775 113.838,413.109 103.5,410C 85.1528,403.326 67.8195,394.826 51.5,384.5C 51.0269,383.094 50.0269,382.427 48.5,382.5C 29.6204,371.119 15.4537,355.453 6,335.5C -1.73211,309.431 3.60122,286.431 22,266.5C 42.7786,246.18 66.9453,231.014 94.5,221C 107.281,216.129 120.281,211.962 133.5,208.5C 126.886,182.258 123.219,155.591 122.5,128.5C 122.139,107.661 125.972,87.6605 134,68.5C 150.933,39.6306 176.1,28.4639 209.5,35C 231.972,40.9038 252.638,50.5704 271.5,64C 287.572,75.7364 302.738,88.5698 317,102.5C 342.284,76.8635 371.117,56.3635 403.5,41C 464.938,20.9599 500.438,42.7932 510,106.5C 512.626,140.986 509.126,174.819 499.5,208C 525.511,214.852 550.178,224.686 573.5,237.5 Z M 243.5,79.5 C 243.973,80.9063 244.973,81.573 246.5,81.5C 258.155,89.6704 269.488,98.3371 280.5,107.5C 280.973,108.906 281.973,109.573 283.5,109.5C 287.506,114.173 291.839,118.506 296.5,122.5C 279.645,141.34 263.979,161.007 249.5,181.5C 248.094,181.973 247.427,182.973 247.5,184.5C 246.833,184.5 246.5,184.833 246.5,185.5C 245.094,185.973 244.427,186.973 244.5,188.5C 216.289,191.102 188.289,195.102 160.5,200.5C 154.875,176.833 151.541,152.833 150.5,128.5C 149.869,109.134 154.369,91.1337 164,74.5C 175.047,62.482 188.547,58.6487 204.5,63C 218.265,66.8877 231.265,72.3877 243.5,79.5 Z M 473.5,198.5 C 472.221,199.968 470.554,200.635 468.5,200.5C 444.802,194.972 420.802,191.305 396.5,189.5C 393.947,188.745 391.28,188.078 388.5,187.5C 387.974,185.77 386.974,184.436 385.5,183.5C 385.573,181.973 384.906,180.973 383.5,180.5C 381.853,177.527 379.853,174.86 377.5,172.5C 377.573,170.973 376.906,169.973 375.5,169.5C 364.68,154.202 352.68,139.868 339.5,126.5C 339.573,124.973 338.906,123.973 337.5,123.5C 360.899,97.6344 388.899,78.1344 421.5,65C 433.895,60.5292 446.228,60.5292 458.5,65C 466.781,69.7189 472.614,76.5522 476,85.5C 479.105,94.2547 481.105,103.255 482,112.5C 482.777,127.193 482.444,141.859 481,156.5C 479.131,170.635 476.631,184.635 473.5,198.5 Z M 350.5,183.5 C 350.611,184.117 350.944,184.617 351.5,185C 348.183,185.498 344.85,185.665 341.5,185.5C 321.506,184.652 301.506,184.485 281.5,185C 292.584,170.578 304.418,156.745 317,143.5C 328.889,156.309 340.055,169.643 350.5,183.5 Z M 390.5,241.5 C 390.932,242.71 391.599,243.71 392.5,244.5C 406.387,266.992 419.054,290.158 430.5,314C 413.813,348.045 394.813,380.712 373.5,412C 335.474,415.487 297.474,415.32 259.5,411.5C 258.057,408.923 256.39,406.59 254.5,404.5C 254.573,402.973 253.906,401.973 252.5,401.5C 234.257,373.525 217.924,344.358 203.5,314C 219.758,279.966 238.425,247.466 259.5,216.5C 260.729,215.719 262.062,215.219 263.5,215C 299.167,213 334.833,213 370.5,215C 371.938,215.219 373.271,215.719 374.5,216.5C 379.86,224.851 385.193,233.184 390.5,241.5 Z M 219.5,219.5 C 221.179,219.285 222.179,219.952 222.5,221.5C 221.094,221.973 220.427,222.973 220.5,224.5C 209.145,241.872 198.812,259.872 189.5,278.5C 188.833,278.833 188.167,279.167 187.5,279.5C 181.102,263.304 175.102,246.971 169.5,230.5C 169.782,229.222 170.449,228.222 171.5,227.5C 187.472,224.616 203.472,221.949 219.5,219.5 Z M 410.5,219.5 C 428.893,221.12 446.893,224.453 464.5,229.5C 458.942,246.512 452.609,263.179 445.5,279.5C 434.604,258.964 422.937,238.964 410.5,219.5 Z M 139.5,235.5 C 140.75,235.577 141.583,236.244 142,237.5C 150.603,263.529 160.437,289.029 171.5,314C 159.954,339.638 149.788,365.805 141,392.5C 112.453,384.305 85.6201,372.471 60.5,357C 48.8571,349.026 39.6904,338.859 33,326.5C 28.8387,314.307 30.5054,302.974 38,292.5C 52.4928,275.66 69.9928,262.827 90.5,254C 106.671,247.114 123.005,240.947 139.5,235.5 Z M 580.5,276.5 C 580.973,277.906 581.973,278.573 583.5,278.5C 589.643,283.971 594.643,290.305 598.5,297.5C 598.932,298.71 599.599,299.71 600.5,300.5C 604.704,312.417 603.371,323.75 596.5,334.5C 595.094,334.973 594.427,335.973 594.5,337.5C 578.785,354.341 560.118,367.174 538.5,376C 523.569,382.219 508.402,387.719 493,392.5C 484.308,365.615 473.808,339.448 461.5,314C 473.22,288.85 483.387,263.017 492,236.5C 524.211,243.686 553.711,257.02 580.5,276.5 Z M 187.5,347.5 C 198.579,368.149 210.579,388.316 223.5,408C 205.347,406.364 187.347,403.53 169.5,399.5C 174.901,381.965 180.901,364.631 187.5,347.5 Z M 444.5,348.5 C 445.167,348.5 445.833,348.5 446.5,348.5C 452.905,365.383 458.905,382.383 464.5,399.5C 446.632,403.409 428.632,406.243 410.5,408C 423.009,388.813 434.342,368.979 444.5,348.5 Z M 161.5,426.5 C 188.913,432.44 216.58,436.94 244.5,440C 261.062,462.533 278.229,484.366 296,505.5C 274.921,526.786 251.087,544.286 224.5,558C 213.935,562.558 202.935,565.391 191.5,566.5C 175.296,565.485 164.13,557.485 158,542.5C 152.314,525.986 149.981,508.986 151,491.5C 152.127,469.406 155.627,447.739 161.5,426.5 Z M 470.5,426.5 C 471.497,426.47 472.164,426.97 472.5,428C 480.637,456.627 483.804,485.794 482,515.5C 478.003,561.745 454.503,576.245 411.5,559C 383.461,545.154 358.461,527.154 336.5,505C 355.681,484.494 373.347,462.828 389.5,440C 416.908,437.112 443.908,432.612 470.5,426.5 Z M 321.5,479.5 C 320.094,479.973 319.427,480.973 319.5,482.5C 318.542,482.953 317.708,483.619 317,484.5C 304.79,470.626 292.957,456.459 281.5,442C 305.167,442.667 328.833,442.667 352.5,442C 342.71,454.956 332.376,467.456 321.5,479.5 Z"/></g>
<g><path style="opacity:0.369" fill="#3e5e68" d="M 243.5,79.5 C 245.027,79.427 246.027,80.0937 246.5,81.5C 244.973,81.573 243.973,80.9063 243.5,79.5 Z"/></g>
<g><path style="opacity:0.675" fill="#406672" d="M 280.5,107.5 C 282.027,107.427 283.027,108.094 283.5,109.5C 281.973,109.573 280.973,108.906 280.5,107.5 Z"/></g>
<g><path style="opacity:0.643" fill="#416672" d="M 337.5,123.5 C 338.906,123.973 339.573,124.973 339.5,126.5C 338.094,126.027 337.427,125.027 337.5,123.5 Z"/></g>
<g><path style="opacity:0.439" fill="#41636e" d="M 375.5,169.5 C 376.906,169.973 377.573,170.973 377.5,172.5C 376.094,172.027 375.427,171.027 375.5,169.5 Z"/></g>
<g><path style="opacity:0.459" fill="#446873" d="M 383.5,180.5 C 384.906,180.973 385.573,181.973 385.5,183.5C 384.094,183.027 383.427,182.027 383.5,180.5 Z"/></g>
<g><path style="opacity:0.459" fill="#42646e" d="M 249.5,181.5 C 249.573,183.027 248.906,184.027 247.5,184.5C 247.427,182.973 248.094,181.973 249.5,181.5 Z"/></g>
<g><path style="opacity:0.525" fill="#4a6e78" d="M 350.5,183.5 C 352.048,183.821 352.715,184.821 352.5,186.5C 348.629,186.815 344.962,186.482 341.5,185.5C 344.85,185.665 348.183,185.498 351.5,185C 350.944,184.617 350.611,184.117 350.5,183.5 Z"/></g>
<g><path style="opacity:0.341" fill="#375158" d="M 246.5,185.5 C 246.573,187.027 245.906,188.027 244.5,188.5C 244.427,186.973 245.094,185.973 246.5,185.5 Z"/></g>
<g><path style="opacity:0.363" fill="#416069" d="M 388.5,187.5 C 391.28,188.078 393.947,188.745 396.5,189.5C 393.302,190.036 390.635,189.369 388.5,187.5 Z"/></g>
<g><path style="opacity:0.004" fill="#2c3d41" d="M 473.5,198.5 C 473.5,199.5 473.5,200.5 473.5,201.5C 471.585,201.784 469.919,201.451 468.5,200.5C 470.554,200.635 472.221,199.968 473.5,198.5 Z"/></g>
<g><path style="opacity:0.143" fill="#384e53" d="M 219.5,219.5 C 220.946,218.387 222.613,218.22 224.5,219C 223.934,219.995 223.267,220.828 222.5,221.5C 222.179,219.952 221.179,219.285 219.5,219.5 Z"/></g>
<g><path style="opacity:0.373" fill="#3f5e68" d="M 222.5,221.5 C 222.573,223.027 221.906,224.027 220.5,224.5C 220.427,222.973 221.094,221.973 222.5,221.5 Z"/></g>
<g><path style="opacity:0.2" fill="#364b4f" d="M 171.5,227.5 C 170.449,228.222 169.782,229.222 169.5,230.5C 168.596,229.791 168.263,228.791 168.5,227.5C 169.5,227.5 170.5,227.5 171.5,227.5 Z"/></g>
<g><path style="opacity:0.847" fill="#3e6370" d="M 573.5,237.5 C 574.71,237.932 575.71,238.599 576.5,239.5C 574.821,239.715 573.821,239.048 573.5,237.5 Z"/></g>
<g><path style="opacity:0.839" fill="#406470" d="M 390.5,241.5 C 392.048,241.821 392.715,242.821 392.5,244.5C 391.599,243.71 390.932,242.71 390.5,241.5 Z"/></g>
<g><path style="opacity:0.999" fill="#6ccbec" d="M 307.5,257.5 C 338.07,255.101 359.07,267.935 370.5,296C 377.959,326.31 368.292,349.31 341.5,365C 312.101,376.113 287.935,369.279 269,344.5C 254.452,316.737 258.285,291.903 280.5,270C 288.721,263.99 297.721,259.823 307.5,257.5 Z"/></g>
<g><path style="opacity:0.678" fill="#41636e" d="M 580.5,276.5 C 582.027,276.427 583.027,277.094 583.5,278.5C 581.973,278.573 580.973,277.906 580.5,276.5 Z"/></g>
<g><path style="opacity:0.486" fill="#39545b" d="M 189.5,278.5 C 188.968,281.46 188.301,281.793 187.5,279.5C 188.167,279.167 188.833,278.833 189.5,278.5 Z"/></g>
<g><path style="opacity:0.847" fill="#406571" d="M 598.5,297.5 C 600.048,297.821 600.715,298.821 600.5,300.5C 599.599,299.71 598.932,298.71 598.5,297.5 Z"/></g>
<g><path style="opacity:0.451" fill="#446872" d="M 596.5,334.5 C 596.573,336.027 595.906,337.027 594.5,337.5C 594.427,335.973 595.094,334.973 596.5,334.5 Z"/></g>
<g><path style="opacity:0.094" fill="#31464b" d="M 446.5,348.5 C 445.833,348.5 445.167,348.5 444.5,348.5C 445.167,345.833 445.833,345.833 446.5,348.5 Z"/></g>
<g><path style="opacity:0.404" fill="#3c5961" d="M 48.5,382.5 C 50.0269,382.427 51.0269,383.094 51.5,384.5C 49.9731,384.573 48.9731,383.906 48.5,382.5 Z"/></g>
<g><path style="opacity:0.353" fill="#3f5e67" d="M 252.5,401.5 C 253.906,401.973 254.573,402.973 254.5,404.5C 253.094,404.027 252.427,403.027 252.5,401.5 Z"/></g>
<g><path style="opacity:0.678" fill="#40626d" d="M 321.5,479.5 C 321.573,481.027 320.906,482.027 319.5,482.5C 319.427,480.973 320.094,479.973 321.5,479.5 Z"/></g>
<g><path style="opacity:0.702" fill="#41626c" d="M 340.5,546.5 C 342.027,546.427 343.027,547.094 343.5,548.5C 341.973,548.573 340.973,547.906 340.5,546.5 Z"/></g>
<g><path style="opacity:0.416" fill="#3b5860" d="M 354.5,557.5 C 356.027,557.427 357.027,558.094 357.5,559.5C 355.973,559.573 354.973,558.906 354.5,557.5 Z"/></g>
<g><path style="opacity:0.361" fill="#3b5860" d="M 361.5,562.5 C 363.027,562.427 364.027,563.094 364.5,564.5C 362.973,564.573 361.973,563.906 361.5,562.5 Z"/></g>
<g><path style="opacity:0.353" fill="#3f5e68" d="M 155.5,583.5 C 157.027,583.427 158.027,584.094 158.5,585.5C 156.973,585.573 155.973,584.906 155.5,583.5 Z"/></g>
</svg>
