<?xml version="1.0" encoding="UTF-8"?>
<!DOCTYPE svg PUBLIC "-//W3C//DTD SVG 1.1//EN" "http://www.w3.org/Graphics/SVG/1.1/DTD/svg11.dtd">
<svg xmlns="http://www.w3.org/2000/svg" version="1.1" width="280px" height="280px" style="shape-rendering:geometricPrecision; text-rendering:geometricPrecision; image-rendering:optimizeQuality; fill-rule:evenodd; clip-rule:evenodd" xmlns:xlink="http://www.w3.org/1999/xlink">
<g><path style="opacity:0.983" fill="#004a3e" d="M 106.5,6.5 C 130.502,6.33337 154.502,6.50003 178.5,7C 186.155,10.6163 188.321,16.4496 185,24.5C 183.457,26.3783 181.624,27.8783 179.5,29C 154.833,29.6667 130.167,29.6667 105.5,29C 98.4673,24.2267 96.9673,18.0601 101,10.5C 103.015,9.30342 104.849,7.97008 106.5,6.5 Z"/></g>
<g><path style="opacity:0.98" fill="#029688" d="M 111.5,34.5 C 132.833,34.5 154.167,34.5 175.5,34.5C 175.333,51.5033 175.5,68.5033 176,85.5C 195.277,134.389 214.277,183.389 233,232.5C 236.319,249.693 229.819,261.527 213.5,268C 210.167,269 206.833,270 203.5,271C 163.167,271.667 122.833,271.667 82.5,271C 72.1206,268.896 63.2873,264.062 56,256.5C 50.0365,246.765 49.3698,236.765 54,226.5C 72.994,179.177 91.994,131.843 111,84.5C 111.5,67.8367 111.667,51.17 111.5,34.5 Z"/></g>
<g><path style="opacity:0.97" fill="#004c3f" d="M 92.5,57.5 C 97.1667,57.5 101.833,57.5 106.5,57.5C 106.5,65.5 106.5,73.5 106.5,81.5C 96.8746,91.5354 85.2079,94.702 71.5,91C 68.1054,89.8851 64.9387,88.3851 62,86.5C 64.9922,74.4863 72.1589,65.6529 83.5,60C 86.3527,58.5699 89.3527,57.7366 92.5,57.5 Z"/></g>
<g><path style="opacity:0.167" fill="#003229" d="M 92.5,57.5 C 97.3054,56.5128 102.305,56.1795 107.5,56.5C 107.826,65.0168 107.493,73.3501 106.5,81.5C 106.5,73.5 106.5,65.5 106.5,57.5C 101.833,57.5 97.1667,57.5 92.5,57.5 Z"/></g>
<g><path style="opacity:0.962" fill="#004b3f" d="M 179.5,56.5 C 202.609,54.9431 217.776,64.9431 225,86.5C 209.015,95.5619 194.015,94.2286 180,82.5C 179.5,73.8397 179.334,65.1731 179.5,56.5 Z"/></g>
<g><path style="opacity:1" fill="#fafdfc" d="M 154.5,115.5 C 162.939,114.8 168.439,118.467 171,126.5C 172.61,134.68 170.11,141.18 163.5,146C 154.355,148.011 148.521,144.511 146,135.5C 144.284,126.796 147.117,120.129 154.5,115.5 Z"/></g>
<g><path style="opacity:1" fill="#fbfdfd" d="M 114.5,130.5 C 121.336,129.496 126.169,132.163 129,138.5C 130.567,146.146 128.067,151.979 121.5,156C 114.314,156.833 109.814,153.666 108,146.5C 106.607,139.631 108.774,134.297 114.5,130.5 Z"/></g>
<g><path style="opacity:1" fill="#fdfefe" d="M 122.5,170.5 C 148.062,168.7 173.062,171.534 197.5,179C 204.711,195.287 211.544,211.787 218,228.5C 220.105,238.122 217.272,245.956 209.5,252C 203.473,255.181 197.14,257.514 190.5,259C 158.167,259.667 125.833,259.667 93.5,259C 84.2958,257.316 76.4625,253.149 70,246.5C 66.8384,241.223 65.8384,235.557 67,229.5C 74,212.5 81,195.5 88,178.5C 99.3231,174.626 110.823,171.959 122.5,170.5 Z"/></g>
<g><path style="opacity:1" fill="#0a5144" d="M 104.5,187.5 C 110.262,187.149 115.928,187.649 121.5,189C 128.136,192.327 129.136,196.827 124.5,202.5C 117.078,207.11 109.412,207.61 101.5,204C 97.1392,201.774 95.6392,198.274 97,193.5C 99.4784,191.361 101.978,189.361 104.5,187.5 Z"/></g>
<g><path style="opacity:1" fill="#095144" d="M 160.5,187.5 C 167.582,186.643 174.249,187.809 180.5,191C 184.756,195.385 184.423,199.385 179.5,203C 172.328,207.184 164.995,207.518 157.5,204C 153.139,201.774 151.639,198.274 153,193.5C 155.478,191.361 157.978,189.361 160.5,187.5 Z"/></g>
</svg>
