<?xml version="1.0" encoding="UTF-8"?>
<!DOCTYPE svg PUBLIC "-//W3C//DTD SVG 1.1//EN" "http://www.w3.org/Graphics/SVG/1.1/DTD/svg11.dtd">
<svg xmlns="http://www.w3.org/2000/svg" version="1.1" width="634px" height="630px" style="shape-rendering:geometricPrecision; text-rendering:geometricPrecision; image-rendering:optimizeQuality; fill-rule:evenodd; clip-rule:evenodd" xmlns:xlink="http://www.w3.org/1999/xlink">
<g><path style="opacity:0.997" fill="#48baea" d="M 633.5,183.5 C 633.5,184.5 633.5,185.5 633.5,186.5C 612.666,268.631 559.666,310.298 474.5,311.5C 429.914,311.809 390.581,297.976 356.5,270C 340.582,255.084 324.915,239.75 309.5,224C 278.475,195.564 243.475,189.564 204.5,206C 185.869,216.296 170.369,230.129 158,247.5C 164.999,209.675 182.833,177.841 211.5,152C 242.341,129.07 277.175,118.57 316,120.5C 364.871,119.006 407.037,134.839 442.5,168C 459.567,186.07 477.567,203.07 496.5,219C 536.505,241.998 574.171,238.665 609.5,209C 618.148,200.859 626.148,192.359 633.5,183.5 Z"/></g>
<g><path style="opacity:0.997" fill="#48baea" d="M -0.5,437.5 C -0.5,435.833 -0.5,434.167 -0.5,432.5C 5.92966,409.3 15.9297,387.633 29.5,367.5C 56.3441,333.34 91.6775,314.506 135.5,311C 192.82,304.391 242.487,320.391 284.5,359C 299.96,375.118 315.96,390.618 332.5,405.5C 362.543,426.929 394.543,430.096 428.5,415C 446.895,404.601 462.062,390.767 474,373.5C 455.532,458.1 402.865,500.766 316,501.5C 271.545,502.615 232.378,489.115 198.5,461C 180.137,442.636 161.47,424.636 142.5,407C 113.75,386.138 82.7502,382.138 49.5,395C 29.5342,405.48 12.8675,419.646 -0.5,437.5 Z"/></g>
</svg>
