<?xml version="1.0" encoding="UTF-8"?>
<!DOCTYPE svg PUBLIC "-//W3C//DTD SVG 1.1//EN" "http://www.w3.org/Graphics/SVG/1.1/DTD/svg11.dtd">
<svg xmlns="http://www.w3.org/2000/svg" version="1.1" width="634px" height="630px" style="shape-rendering:geometricPrecision; text-rendering:geometricPrecision; image-rendering:optimizeQuality; fill-rule:evenodd; clip-rule:evenodd" xmlns:xlink="http://www.w3.org/1999/xlink">
<g><path style="opacity:0.996" fill="#425caa" d="M 38.5,-0.5 C 223.833,-0.5 409.167,-0.5 594.5,-0.5C 577.53,188.509 560.196,377.509 542.5,566.5C 467.335,587.339 392.335,608.339 317.5,629.5C 316.5,629.5 315.5,629.5 314.5,629.5C 239.656,608.369 164.656,587.369 89.5,566.5C 71.6741,377.591 54.6741,188.591 38.5,-0.5 Z"/></g>
<g><path style="opacity:1" fill="#4567b1" d="M 315.5,508.5 C 316.492,508.672 317.158,508.338 317.5,507.5C 364.544,494.989 411.544,482.322 458.5,469.5C 469.117,351.537 479.45,233.537 489.5,115.5C 431.669,114.501 373.669,114.168 315.5,114.5C 315.5,91.5 315.5,68.5 315.5,45.5C 391.167,45.5 466.833,45.5 542.5,45.5C 528.444,206.837 514.277,368.17 500,529.5C 438.565,546.734 377.065,563.734 315.5,580.5C 315.5,556.5 315.5,532.5 315.5,508.5 Z"/></g>
<g><path style="opacity:1" fill="#6f7ebd" d="M 315.5,114.5 C 373.669,114.168 431.669,114.501 489.5,115.5C 431.833,115.5 374.167,115.5 316.5,115.5C 258.5,115.5 200.5,115.5 142.5,115.5C 142.5,116.833 142.5,118.167 142.5,119.5C 141.549,118.081 141.216,116.415 141.5,114.5C 199.5,114.5 257.5,114.5 315.5,114.5 Z"/></g>
<g><path style="opacity:1" fill="#ebecee" d="M 316.5,115.5 C 316.5,138.5 316.5,161.5 316.5,184.5C 260.5,184.5 204.5,184.5 148.5,184.5C 146.141,162.887 144.141,141.22 142.5,119.5C 142.5,118.167 142.5,116.833 142.5,115.5C 200.5,115.5 258.5,115.5 316.5,115.5 Z"/></g>
<g><path style="opacity:1" fill="#fefefe" d="M 316.5,115.5 C 374.167,115.5 431.833,115.5 489.5,115.5C 479.45,233.537 469.117,351.537 458.5,469.5C 411.544,482.322 364.544,494.989 317.5,507.5C 316.502,484.006 316.169,460.339 316.5,436.5C 341.684,429.107 367.018,422.107 392.5,415.5C 395.66,385.545 398.66,355.545 401.5,325.5C 373.167,325.5 344.833,325.5 316.5,325.5C 316.5,302.5 316.5,279.5 316.5,256.5C 347.005,256.831 377.338,256.498 407.5,255.5C 409.578,231.843 411.578,208.176 413.5,184.5C 381.167,184.5 348.833,184.5 316.5,184.5C 316.5,161.5 316.5,138.5 316.5,115.5 Z"/></g>
<g><path style="opacity:1" fill="#4767b1" d="M 148.5,184.5 C 204.5,184.5 260.5,184.5 316.5,184.5C 348.833,184.5 381.167,184.5 413.5,184.5C 411.578,208.176 409.578,231.843 407.5,255.5C 376.833,255.5 346.167,255.5 315.5,255.5C 315.5,232.167 315.5,208.833 315.5,185.5C 259.664,185.832 203.998,185.499 148.5,184.5 Z"/></g>
<g><path style="opacity:1" fill="#eaebed" d="M 315.5,255.5 C 346.167,255.5 376.833,255.5 407.5,255.5C 377.338,256.498 347.005,256.831 316.5,256.5C 316.5,279.5 316.5,302.5 316.5,325.5C 316.167,325.5 315.833,325.5 315.5,325.5C 263.833,325.5 212.167,325.5 160.5,325.5C 158.406,302.181 156.406,278.848 154.5,255.5C 208.167,255.5 261.833,255.5 315.5,255.5 Z"/></g>
<g><path style="opacity:1" fill="#4567b1" d="M 315.5,325.5 C 315.833,325.5 316.167,325.5 316.5,325.5C 344.833,325.5 373.167,325.5 401.5,325.5C 398.66,355.545 395.66,385.545 392.5,415.5C 367.018,422.107 341.684,429.107 316.5,436.5C 315.209,436.737 314.209,436.404 313.5,435.5C 315.494,399.182 316.16,362.515 315.5,325.5 Z"/></g>
<g><path style="opacity:1" fill="#9197c8" d="M 233.5,360.5 C 210.5,360.5 187.5,360.5 164.5,360.5C 164.5,362.5 164.5,364.5 164.5,366.5C 163.532,364.393 163.198,362.059 163.5,359.5C 187.006,359.169 210.339,359.502 233.5,360.5 Z"/></g>
<g><path style="opacity:1" fill="#ebeced" d="M 233.5,360.5 C 235.14,378.878 237.14,397.211 239.5,415.5C 264.139,422.294 288.806,428.961 313.5,435.5C 314.209,436.404 315.209,436.737 316.5,436.5C 316.169,460.339 316.502,484.006 317.5,507.5C 317.158,508.338 316.492,508.672 315.5,508.5C 268.32,495.956 221.32,482.956 174.5,469.5C 173.749,468.624 173.249,467.624 173,466.5C 170.492,433.124 167.658,399.791 164.5,366.5C 164.5,364.5 164.5,362.5 164.5,360.5C 187.5,360.5 210.5,360.5 233.5,360.5 Z"/></g>
</svg>
