<?xml version="1.0" standalone="no"?>
<!DOCTYPE svg PUBLIC "-//W3C//DTD SVG 20010904//EN"
 "http://www.w3.org/TR/2001/REC-SVG-20010904/DTD/svg10.dtd">
<svg version="1.0" xmlns="http://www.w3.org/2000/svg"
 width="634.000000pt" height="630.000000pt" viewBox="0 0 634.000000 630.000000"
 preserveAspectRatio="xMidYMid meet">

<g transform="translate(0.000000,630.000000) scale(0.100000,-0.100000)"
fill="#000000" stroke="none">
<path d="M397 6258 c2 -24 116 -1298 253 -2831 136 -1533 249 -2789 251 -2791
2 -2 512 -144 1132 -315 l1128 -312 1127 311 c620 172 1132 317 1138 324 6 6
112 1150 258 2801 136 1535 250 2805 253 2823 l5 32 -2775 0 -2775 0 5 -42z
m5033 -435 c0 -20 -431 -4817 -433 -4819 -1 -1 -411 -116 -912 -256 l-910
-254 -3 352 c-2 269 -5 353 -15 357 -6 2 -325 91 -707 197 -382 106 -700 198
-706 204 -9 8 -105 1016 -104 1084 0 10 74 12 353 10 l352 -3 24 -276 24 -276
381 -102 c210 -56 384 -101 389 -101 4 0 7 248 7 550 l0 550 -780 0 -780 0 -4
23 c-5 24 -186 2041 -186 2070 0 16 48 17 875 17 l875 0 0 340 0 340 1130 0
c622 0 1130 -3 1130 -7z"/>
<path d="M2190 4433 c0 -5 14 -152 30 -328 16 -176 30 -330 30 -342 l0 -23
460 0 460 0 0 350 0 350 -490 0 c-269 0 -490 -3 -490 -7z"/>
</g>
</svg>
