<?xml version="1.0" encoding="UTF-8"?>
<!DOCTYPE svg PUBLIC "-//W3C//DTD SVG 1.1//EN" "http://www.w3.org/Graphics/SVG/1.1/DTD/svg11.dtd">
<svg xmlns="http://www.w3.org/2000/svg" version="1.1" width="634px" height="630px" style="shape-rendering:geometricPrecision; text-rendering:geometricPrecision; image-rendering:optimizeQuality; fill-rule:evenodd; clip-rule:evenodd" xmlns:xlink="http://www.w3.org/1999/xlink">
<g><path style="opacity:1" fill="#f3e01a" d="M -0.5,-0.5 C 210.833,-0.5 422.167,-0.5 633.5,-0.5C 633.5,209.5 633.5,419.5 633.5,629.5C 422.167,629.5 210.833,629.5 -0.5,629.5C -0.5,419.5 -0.5,209.5 -0.5,-0.5 Z"/></g>
<g><path style="opacity:1" fill="#060908" d="M 470.5,284.5 C 512.433,280.223 544.599,295.556 567,330.5C 567.445,332.594 566.612,334.094 564.5,335C 550.033,343.969 535.699,353.136 521.5,362.5C 507.299,337.488 487.299,331.322 461.5,344C 453.176,355.221 452.342,367.054 459,379.5C 461.884,382.685 465.051,385.518 468.5,388C 491.105,398.634 513.772,409.301 536.5,420C 582.663,447.563 596.163,486.73 577,537.5C 564.881,557.827 547.381,571.327 524.5,578C 485.843,588.03 449.176,583.363 414.5,564C 398.412,553.418 386.079,539.584 377.5,522.5C 392.95,512.077 408.95,502.41 425.5,493.5C 443.887,524.522 470.554,535.356 505.5,526C 524.279,517.336 529.446,503.503 521,484.5C 517.391,480.103 513.224,476.27 508.5,473C 490.161,464.169 471.494,455.835 452.5,448C 401.622,423.037 384.788,383.537 402,329.5C 416.984,302.703 439.818,287.703 470.5,284.5 Z"/></g>
<g><path style="opacity:1" fill="#3f3b22" d="M 344.5,288.5 C 324.833,288.5 305.167,288.5 285.5,288.5C 285.833,358.335 285.499,428.002 284.5,497.5C 284.5,427.5 284.5,357.5 284.5,287.5C 304.674,287.17 324.674,287.503 344.5,288.5 Z"/></g>
<g><path style="opacity:1" fill="#040707" d="M 344.5,288.5 C 344.667,361.501 344.5,434.501 344,507.5C 338.485,551.682 313.651,576.515 269.5,582C 241.814,585.428 216.48,579.428 193.5,564C 181.37,554.37 172.037,542.537 165.5,528.5C 181.5,518.5 197.5,508.5 213.5,498.5C 218.801,507.979 225.467,516.479 233.5,524C 246.818,531.284 260.152,531.284 273.5,524C 280.708,516.705 284.374,507.872 284.5,497.5C 285.499,428.002 285.833,358.335 285.5,288.5C 305.167,288.5 324.833,288.5 344.5,288.5 Z"/></g>
</svg>
