<?xml version="1.0" encoding="UTF-8"?>
<!DOCTYPE svg PUBLIC "-//W3C//DTD SVG 1.1//EN" "http://www.w3.org/Graphics/SVG/1.1/DTD/svg11.dtd">
<svg xmlns="http://www.w3.org/2000/svg" version="1.1" width="634px" height="630px" style="shape-rendering:geometricPrecision; text-rendering:geometricPrecision; image-rendering:optimizeQuality; fill-rule:evenodd; clip-rule:evenodd" xmlns:xlink="http://www.w3.org/1999/xlink">
<g><path style="opacity:0.975" fill="#e41c88" d="M 294.5,63.5 C 293.209,63.2627 292.209,63.596 291.5,64.5C 286.305,64.1795 281.305,64.5128 276.5,65.5C 267.86,65.732 259.527,67.0653 251.5,69.5C 243.449,70.4283 235.782,72.4283 228.5,75.5C 220.619,77.3443 213.286,80.3443 206.5,84.5C 203.088,85.0421 200.088,86.3754 197.5,88.5C 193.345,89.7417 189.678,91.7417 186.5,94.5C 183.24,95.7738 180.24,97.4405 177.5,99.5C 107.461,145.518 67.961,210.518 59,294.5C 56.467,326.536 59.967,357.87 69.5,388.5C 55.5294,375.245 45.0294,359.579 38,341.5C 37.1743,336.411 37.5076,331.411 39,326.5C 42.75,319.998 46.75,313.665 51,307.5C 52.2808,303.596 53.1142,299.596 53.5,295.5C 48.8333,276.833 44.1667,258.167 39.5,239.5C 40.8772,225.579 46.8772,214.079 57.5,205C 67.289,198.878 75.4557,191.045 82,181.5C 83.9538,177.019 85.2872,172.352 86,167.5C 86.6315,154.131 87.6315,140.797 89,127.5C 92.807,114.36 101.307,105.86 114.5,102C 124.656,99.3154 134.989,97.6487 145.5,97C 160.844,93.2409 173.344,85.0743 183,72.5C 188.459,65.3725 194.292,58.5392 200.5,52C 214.69,41.1577 230.69,37.1577 248.5,40C 266.539,42.8512 281.872,50.6845 294.5,63.5 Z"/></g>
<g><path style="opacity:0.999" fill="#a42988" d="M 294.5,63.5 C 299.5,63.5 304.5,63.5 309.5,63.5C 298.506,69.2857 288.673,76.9524 280,86.5C 272.199,95.7861 265.032,105.453 258.5,115.5C 255.215,115.072 252.215,114.072 249.5,112.5C 250.376,112.631 251.043,112.298 251.5,111.5C 261.974,93.3624 275.307,77.6958 291.5,64.5C 292.209,63.596 293.209,63.2627 294.5,63.5 Z"/></g>
<g><path style="opacity:0.999" fill="#ab2888" d="M 309.5,63.5 C 314.602,64.1205 319.602,64.7872 324.5,65.5C 322.011,65.2978 319.677,65.7978 317.5,67C 297.505,80.8249 281.172,97.9916 268.5,118.5C 267.167,118.167 265.833,117.833 264.5,117.5C 262.214,117.405 260.214,116.738 258.5,115.5C 265.032,105.453 272.199,95.7861 280,86.5C 288.673,76.9524 298.506,69.2857 309.5,63.5 Z"/></g>
<g><path style="opacity:1" fill="#9f2a88" d="M 276.5,65.5 C 281.305,64.5128 286.305,64.1795 291.5,64.5C 275.307,77.6958 261.974,93.3624 251.5,111.5C 251.043,112.298 250.376,112.631 249.5,112.5C 248.5,112.5 247.5,112.5 246.5,112.5C 244.013,111.677 241.679,110.677 239.5,109.5C 240.822,109.67 241.989,109.337 243,108.5C 252.393,92.1683 263.559,77.835 276.5,65.5 Z"/></g>
<g><path style="opacity:0.999" fill="#b12787" d="M 324.5,65.5 C 329.75,65.3025 334.75,65.9692 339.5,67.5C 335.684,68.4006 332.017,69.9006 328.5,72C 308.667,83.8333 292.833,99.6667 281,119.5C 280.184,120.823 279.017,121.489 277.5,121.5C 274.215,121.072 271.215,120.072 268.5,118.5C 281.172,97.9916 297.505,80.8249 317.5,67C 319.677,65.7978 322.011,65.2978 324.5,65.5 Z"/></g>
<g><path style="opacity:1" fill="#952b88" d="M 276.5,65.5 C 263.559,77.835 252.393,92.1683 243,108.5C 241.989,109.337 240.822,109.67 239.5,109.5C 236.5,108.833 233.5,108.167 230.5,107.5C 228.833,107.5 227.167,107.5 225.5,107.5C 232.898,93.8819 241.898,81.3819 252.5,70C 252.272,69.6012 251.938,69.4346 251.5,69.5C 259.527,67.0653 267.86,65.732 276.5,65.5 Z"/></g>
<g><path style="opacity:1" fill="#b82687" d="M 339.5,67.5 C 346.46,67.9586 353.127,69.2919 359.5,71.5C 331.605,81.7191 309.605,99.3857 293.5,124.5C 292.667,124.833 291.833,125.167 291,125.5C 287.172,124.418 283.339,123.418 279.5,122.5C 278.508,122.672 277.842,122.338 277.5,121.5C 279.017,121.489 280.184,120.823 281,119.5C 292.833,99.6667 308.667,83.8333 328.5,72C 332.017,69.9006 335.684,68.4006 339.5,67.5 Z"/></g>
<g><path style="opacity:1" fill="#bd2386" d="M 359.5,71.5 C 365.487,72.4093 371.153,74.076 376.5,76.5C 345.623,84.4505 321.623,101.951 304.5,129C 305.357,129.689 306.023,130.522 306.5,131.5C 300.528,142.445 295.361,153.779 291,165.5C 288.761,181.97 290.595,197.97 296.5,213.5C 286.282,208.891 275.948,204.557 265.5,200.5C 263.833,190.514 263.5,180.514 264.5,170.5C 269.207,170.051 273.874,169.385 278.5,168.5C 279.499,153.181 279.833,137.848 279.5,122.5C 283.339,123.418 287.172,124.418 291,125.5C 291.833,125.167 292.667,124.833 293.5,124.5C 309.605,99.3857 331.605,81.7191 359.5,71.5 Z"/></g>
<g><path style="opacity:1" fill="#892d88" d="M 251.5,69.5 C 251.938,69.4346 252.272,69.6012 252.5,70C 241.898,81.3819 232.898,93.8819 225.5,107.5C 221.463,108.065 217.797,109.399 214.5,111.5C 212.297,111.604 210.297,112.27 208.5,113.5C 213.653,99.69 220.986,87.19 230.5,76C 229.906,75.5357 229.239,75.369 228.5,75.5C 235.782,72.4283 243.449,70.4283 251.5,69.5 Z"/></g>
<g><path style="opacity:1" fill="#c42387" d="M 376.5,76.5 C 382.285,77.5361 387.618,79.5361 392.5,82.5C 359.868,89.5499 334.368,106.883 316,134.5C 299.921,163.585 299.421,192.918 314.5,222.5C 309.829,220.497 305.162,218.497 300.5,216.5C 299.41,215.143 298.076,214.143 296.5,213.5C 290.595,197.97 288.761,181.97 291,165.5C 295.361,153.779 300.528,142.445 306.5,131.5C 306.023,130.522 305.357,129.689 304.5,129C 321.623,101.951 345.623,84.4505 376.5,76.5 Z"/></g>
<g><path style="opacity:1" fill="#7c2e88" d="M 228.5,75.5 C 229.239,75.369 229.906,75.5357 230.5,76C 220.986,87.19 213.653,99.69 208.5,113.5C 199.276,117.223 192.442,123.557 188,132.5C 187.342,136.572 187.675,140.572 189,144.5C 191.179,149.521 193.346,154.521 195.5,159.5C 193.935,168.763 193.601,178.096 194.5,187.5C 194.197,189.114 193.53,190.448 192.5,191.5C 188.5,192.167 184.5,192.833 180.5,193.5C 177.334,154.331 186.334,118.164 207.5,85C 207.272,84.6012 206.938,84.4346 206.5,84.5C 213.286,80.3443 220.619,77.3443 228.5,75.5 Z"/></g>
<g><path style="opacity:1" fill="#c92087" d="M 392.5,82.5 C 400.367,84.7689 407.701,88.1022 414.5,92.5C 377.698,94.8048 349.198,111.138 329,141.5C 316.829,163.55 315.495,186.216 325,209.5C 329.019,217.551 333.519,225.217 338.5,232.5C 330.203,229.679 322.203,226.345 314.5,222.5C 299.421,192.918 299.921,163.585 316,134.5C 334.368,106.883 359.868,89.5499 392.5,82.5 Z"/></g>
<g><path style="opacity:1" fill="#732f89" d="M 206.5,84.5 C 206.938,84.4346 207.272,84.6012 207.5,85C 186.334,118.164 177.334,154.331 180.5,193.5C 179.833,193.5 179.5,193.833 179.5,194.5C 177.784,194.629 176.117,194.962 174.5,195.5C 171.951,170.28 174.784,145.613 183,121.5C 187.296,110.244 192.129,99.2439 197.5,88.5C 200.088,86.3754 203.088,85.0421 206.5,84.5 Z"/></g>
<g><path style="opacity:1" fill="#6d2f89" d="M 197.5,88.5 C 192.129,99.2439 187.296,110.244 183,121.5C 174.784,145.613 171.951,170.28 174.5,195.5C 172.579,196.363 170.579,197.029 168.5,197.5C 164.796,161.683 171.129,127.683 187.5,95.5C 187.376,94.8933 187.043,94.56 186.5,94.5C 189.678,91.7417 193.345,89.7417 197.5,88.5 Z"/></g>
<g><path style="opacity:1" fill="#672f89" d="M 186.5,94.5 C 187.043,94.56 187.376,94.8933 187.5,95.5C 171.129,127.683 164.796,161.683 168.5,197.5C 166.5,198.5 164.5,199.5 162.5,200.5C 158.692,165.848 164.025,132.682 178.5,101C 178.43,100.235 178.097,99.7352 177.5,99.5C 180.24,97.4405 183.24,95.7738 186.5,94.5 Z"/></g>
<g><path style="opacity:1" fill="#d01e86" d="M 414.5,92.5 C 426.34,97.9137 437.34,104.58 447.5,112.5C 415.018,105.038 386.018,111.872 360.5,133C 332.267,164.659 332.601,195.992 361.5,227C 391.934,250.539 425.268,255.539 461.5,242C 493.607,227.953 508.44,203.453 506,168.5C 505.345,166.372 504.511,164.372 503.5,162.5C 512.901,172.259 519.901,183.593 524.5,196.5C 524.677,201.805 523.51,206.805 521,211.5C 509.27,234.402 491.436,250.402 467.5,259.5C 451.076,259.857 434.742,258.857 418.5,256.5C 418.167,256.5 417.833,256.5 417.5,256.5C 415.162,254.96 412.495,254.294 409.5,254.5C 403.906,253.768 398.573,252.435 393.5,250.5C 391.485,249.076 389.152,248.41 386.5,248.5C 383.495,246.723 380.162,245.723 376.5,245.5C 372.498,243.39 368.165,242.057 363.5,241.5C 354.875,239.071 346.542,236.071 338.5,232.5C 333.519,225.217 329.019,217.551 325,209.5C 315.495,186.216 316.829,163.55 329,141.5C 349.198,111.138 377.698,94.8048 414.5,92.5 Z"/></g>
<g><path style="opacity:1" fill="#5f3089" d="M 177.5,99.5 C 178.097,99.7352 178.43,100.235 178.5,101C 164.025,132.682 158.692,165.848 162.5,200.5C 161.508,200.328 160.842,200.662 160.5,201.5C 156.345,202.742 152.678,204.742 149.5,207.5C 145.543,209.473 141.876,211.806 138.5,214.5C 134.518,217.152 130.851,220.152 127.5,223.5C 124.167,226.167 121.167,229.167 118.5,232.5C 116.115,234.884 114.115,237.55 112.5,240.5C 109.484,243.52 106.817,246.854 104.5,250.5C 101.474,254.205 98.8077,258.205 96.5,262.5C 94.246,266.007 92.246,269.673 90.5,273.5C 88.2427,277.605 86.576,281.939 85.5,286.5C 78.1453,302.558 73.9786,319.558 73,337.5C 72.3333,351.5 72.3333,365.5 73,379.5C 73.7322,387.375 74.8989,395.042 76.5,402.5C 76.9926,404.806 77.3259,407.139 77.5,409.5C 74.0697,402.888 71.403,395.888 69.5,388.5C 59.967,357.87 56.467,326.536 59,294.5C 67.961,210.518 107.461,145.518 177.5,99.5 Z"/></g>
<g><path style="opacity:1" fill="#d71c86" d="M 225.5,107.5 C 227.167,107.5 228.833,107.5 230.5,107.5C 230.5,128.833 230.5,150.167 230.5,171.5C 226.958,171.187 223.625,171.521 220.5,172.5C 218.833,172.5 217.167,172.5 215.5,172.5C 215.83,151.993 215.497,131.66 214.5,111.5C 217.797,109.399 221.463,108.065 225.5,107.5 Z"/></g>
<g><path style="opacity:1" fill="#d11c86" d="M 230.5,107.5 C 233.5,108.167 236.5,108.833 239.5,109.5C 241.679,110.677 244.013,111.677 246.5,112.5C 246.5,131.833 246.5,151.167 246.5,170.5C 242.958,170.187 239.625,170.521 236.5,171.5C 234.5,171.5 232.5,171.5 230.5,171.5C 230.5,150.167 230.5,128.833 230.5,107.5 Z"/></g>
<g><path style="opacity:1" fill="#d71c87" d="M 447.5,112.5 C 468.955,125.95 487.621,142.616 503.5,162.5C 504.511,164.372 505.345,166.372 506,168.5C 508.44,203.453 493.607,227.953 461.5,242C 425.268,255.539 391.934,250.539 361.5,227C 332.601,195.992 332.267,164.659 360.5,133C 386.018,111.872 415.018,105.038 447.5,112.5 Z M 375.5,173.5 C 374.5,171.833 373.167,170.5 371.5,169.5C 371.672,168.508 371.338,167.842 370.5,167.5C 369.838,162.505 371.172,158.172 374.5,154.5C 386.655,150.485 392.488,154.818 392,167.5C 388.175,174.384 382.675,176.384 375.5,173.5 Z"/></g>
<g><path style="opacity:1" fill="#dc1a86" d="M 214.5,111.5 C 215.497,131.66 215.83,151.993 215.5,172.5C 212.167,172.5 208.833,172.5 205.5,172.5C 202.167,168.167 198.833,163.833 195.5,159.5C 193.346,154.521 191.179,149.521 189,144.5C 187.675,140.572 187.342,136.572 188,132.5C 192.442,123.557 199.276,117.223 208.5,113.5C 210.297,112.27 212.297,111.604 214.5,111.5 Z"/></g>
<g><path style="opacity:1" fill="#cb1d86" d="M 246.5,112.5 C 247.5,112.5 248.5,112.5 249.5,112.5C 252.215,114.072 255.215,115.072 258.5,115.5C 260.214,116.738 262.214,117.405 264.5,117.5C 265.485,134.756 265.819,152.09 265.5,169.5C 262.615,169.194 259.948,169.527 257.5,170.5C 253.833,170.5 250.167,170.5 246.5,170.5C 246.5,151.167 246.5,131.833 246.5,112.5 Z"/></g>
<g><path style="opacity:1" fill="#c42086" d="M 264.5,117.5 C 265.833,117.833 267.167,118.167 268.5,118.5C 271.215,120.072 274.215,121.072 277.5,121.5C 277.842,122.338 278.508,122.672 279.5,122.5C 279.833,137.848 279.499,153.181 278.5,168.5C 273.874,169.385 269.207,170.051 264.5,170.5C 262.167,170.5 259.833,170.5 257.5,170.5C 259.948,169.527 262.615,169.194 265.5,169.5C 265.819,152.09 265.485,134.756 264.5,117.5 Z"/></g>
<g><path style="opacity:1" fill="#dd1a87" d="M 370.5,167.5 C 371.338,167.842 371.672,168.508 371.5,169.5C 371.833,171.833 373.167,173.167 375.5,173.5C 382.675,176.384 388.175,174.384 392,167.5C 392.488,154.818 386.655,150.485 374.5,154.5C 373.475,154.103 373.308,153.437 374,152.5C 395.016,131.039 419.849,125.206 448.5,135C 474.93,146.031 485.43,165.531 480,193.5C 470.78,213.378 455.28,224.878 433.5,228C 406.701,231.414 385.534,222.247 370,200.5C 363.124,187.324 362.791,173.991 369,160.5C 369.186,163.036 369.686,165.369 370.5,167.5 Z"/></g>
<g><path style="opacity:1" fill="#e11886" d="M 418.5,163.5 C 427.796,162.315 435.296,165.315 441,172.5C 444.662,183.837 440.829,191.337 429.5,195C 420.71,197.068 413.21,194.901 407,188.5C 401.665,175.84 405.499,167.507 418.5,163.5 Z"/></g>
<g><path style="opacity:0.993" fill="#8b2d88" d="M 195.5,159.5 C 198.833,163.833 202.167,168.167 205.5,172.5C 206.209,173.404 207.209,173.737 208.5,173.5C 208.5,178.833 208.5,184.167 208.5,189.5C 213.363,189.181 218.03,189.514 222.5,190.5C 221.761,190.369 221.094,190.536 220.5,191C 234.036,204.038 247.703,216.872 261.5,229.5C 258.451,231.863 255.118,233.863 251.5,235.5C 235.729,220.899 220.062,206.066 204.5,191C 200.49,190.643 196.49,190.81 192.5,191.5C 193.53,190.448 194.197,189.114 194.5,187.5C 193.601,178.096 193.935,168.763 195.5,159.5 Z"/></g>
<g><path style="opacity:1" fill="#b02887" d="M 236.5,171.5 C 239.625,170.521 242.958,170.187 246.5,170.5C 250.167,170.5 253.833,170.5 257.5,170.5C 259.833,170.5 262.167,170.5 264.5,170.5C 263.5,180.514 263.833,190.514 265.5,200.5C 263.579,199.637 261.579,198.971 259.5,198.5C 253.833,196.5 248.167,194.5 242.5,192.5C 242.5,185.5 242.5,178.5 242.5,171.5C 240.5,171.5 238.5,171.5 236.5,171.5 Z"/></g>
<g><path style="opacity:0.941" fill="#902d88" d="M 371.5,169.5 C 373.167,170.5 374.5,171.833 375.5,173.5C 373.167,173.167 371.833,171.833 371.5,169.5 Z"/></g>
<g><path style="opacity:1" fill="#a32988" d="M 220.5,172.5 C 223.625,171.521 226.958,171.187 230.5,171.5C 232.5,171.5 234.5,171.5 236.5,171.5C 238.5,171.5 240.5,171.5 242.5,171.5C 242.5,178.5 242.5,185.5 242.5,192.5C 236.847,191.725 231.18,191.058 225.5,190.5C 223.702,184.689 223.035,178.689 223.5,172.5C 222.5,172.5 221.5,172.5 220.5,172.5 Z"/></g>
<g><path style="opacity:1" fill="#962b88" d="M 205.5,172.5 C 208.833,172.5 212.167,172.5 215.5,172.5C 217.167,172.5 218.833,172.5 220.5,172.5C 221.5,172.5 222.5,172.5 223.5,172.5C 223.035,178.689 223.702,184.689 225.5,190.5C 224.5,190.5 223.5,190.5 222.5,190.5C 218.03,189.514 213.363,189.181 208.5,189.5C 208.5,184.167 208.5,178.833 208.5,173.5C 207.209,173.737 206.209,173.404 205.5,172.5 Z"/></g>
<g><path style="opacity:0.968" fill="#5e308a" d="M 556.5,418.5 C 537.807,400.806 519.14,383.139 500.5,365.5C 530.663,324.175 545.496,277.842 545,226.5C 544.597,221.133 543.93,215.799 543,210.5C 540.697,200.941 538.03,191.607 535,182.5C 556.916,206.063 567.75,234.063 567.5,266.5C 567.219,289.957 562.052,312.291 552,333.5C 547.805,341.612 543.805,349.612 540,357.5C 551.107,346.597 560.773,334.597 569,321.5C 577.175,307.821 584.841,293.821 592,279.5C 600.325,331.203 588.492,377.537 556.5,418.5 Z"/></g>
<g><path style="opacity:0.991" fill="#842e89" d="M 222.5,190.5 C 223.5,190.5 224.5,190.5 225.5,190.5C 231.18,191.058 236.847,191.725 242.5,192.5C 248.167,194.5 253.833,196.5 259.5,198.5C 258.761,198.369 258.094,198.536 257.5,199C 265.627,206.057 273.294,213.557 280.5,221.5C 274.286,224.44 267.953,227.107 261.5,229.5C 247.703,216.872 234.036,204.038 220.5,191C 221.094,190.536 221.761,190.369 222.5,190.5 Z"/></g>
<g><path style="opacity:0.993" fill="#952c88" d="M 251.5,235.5 C 246.167,239.167 240.833,242.833 235.5,246.5C 216.532,229.534 197.866,212.201 179.5,194.5C 179.5,193.833 179.833,193.5 180.5,193.5C 184.5,192.833 188.5,192.167 192.5,191.5C 196.49,190.81 200.49,190.643 204.5,191C 220.062,206.066 235.729,220.899 251.5,235.5 Z"/></g>
<g><path style="opacity:0.991" fill="#9e2a88" d="M 179.5,194.5 C 197.866,212.201 216.532,229.534 235.5,246.5C 231.193,250.472 226.859,254.472 222.5,258.5C 201.813,239.478 181.147,220.478 160.5,201.5C 160.842,200.662 161.508,200.328 162.5,200.5C 164.5,199.5 166.5,198.5 168.5,197.5C 170.579,197.029 172.579,196.363 174.5,195.5C 176.117,194.962 177.784,194.629 179.5,194.5 Z"/></g>
<g><path style="opacity:1" fill="#c62287" d="M 524.5,196.5 C 528.213,205.219 529.547,214.219 528.5,223.5C 527.343,226.273 526.676,229.273 526.5,232.5C 526.672,233.492 526.338,234.158 525.5,234.5C 519.851,239.151 514.851,244.485 510.5,250.5C 503.6,255.134 495.934,257.801 487.5,258.5C 484.119,258.46 480.786,258.793 477.5,259.5C 474.167,259.5 470.833,259.5 467.5,259.5C 491.436,250.402 509.27,234.402 521,211.5C 523.51,206.805 524.677,201.805 524.5,196.5 Z"/></g>
<g><path style="opacity:0.993" fill="#a52887" d="M 160.5,201.5 C 181.147,220.478 201.813,239.478 222.5,258.5C 219.805,261.526 217.138,264.526 214.5,267.5C 192.854,247.522 171.187,227.522 149.5,207.5C 152.678,204.742 156.345,202.742 160.5,201.5 Z"/></g>
<g><path style="opacity:0.97" fill="#7b2e89" d="M 259.5,198.5 C 261.579,198.971 263.579,199.637 265.5,200.5C 275.948,204.557 286.282,208.891 296.5,213.5C 298.076,214.143 299.41,215.143 300.5,216.5C 293.628,217.346 286.962,219.013 280.5,221.5C 273.294,213.557 265.627,206.057 257.5,199C 258.094,198.536 258.761,198.369 259.5,198.5 Z"/></g>
<g><path style="opacity:0.993" fill="#ab2787" d="M 149.5,207.5 C 171.187,227.522 192.854,247.522 214.5,267.5C 211.801,271.19 209.135,274.857 206.5,278.5C 184.161,256.828 161.495,235.495 138.5,214.5C 141.876,211.806 145.543,209.473 149.5,207.5 Z"/></g>
<g><path style="opacity:0.995" fill="#b12687" d="M 138.5,214.5 C 161.495,235.495 184.161,256.828 206.5,278.5C 204.5,282.5 202.5,286.5 200.5,290.5C 179.401,271.57 158.734,252.07 138.5,232C 134.939,228.927 131.272,226.094 127.5,223.5C 130.851,220.152 134.518,217.152 138.5,214.5 Z"/></g>
<g><path style="opacity:0.994" fill="#b82487" d="M 127.5,223.5 C 131.272,226.094 134.939,228.927 138.5,232C 158.734,252.07 179.401,271.57 200.5,290.5C 198.444,294.333 196.778,298.333 195.5,302.5C 172.036,280.872 148.703,259.038 125.5,237C 123.266,235.25 120.932,233.75 118.5,232.5C 121.167,229.167 124.167,226.167 127.5,223.5 Z"/></g>
<g><path style="opacity:0.702" fill="#8c2d88" d="M 528.5,223.5 C 528.785,226.829 528.118,229.829 526.5,232.5C 526.676,229.273 527.343,226.273 528.5,223.5 Z"/></g>
<g><path style="opacity:0.995" fill="#be2387" d="M 118.5,232.5 C 120.932,233.75 123.266,235.25 125.5,237C 148.703,259.038 172.036,280.872 195.5,302.5C 194.142,306.248 192.809,309.914 191.5,313.5C 164.866,289.534 138.533,265.201 112.5,240.5C 114.115,237.55 116.115,234.884 118.5,232.5 Z"/></g>
<g><path style="opacity:1" fill="#a22a88" d="M 525.5,234.5 C 522.559,241.774 517.559,247.107 510.5,250.5C 514.851,244.485 519.851,239.151 525.5,234.5 Z"/></g>
<g><path style="opacity:0.995" fill="#c42187" d="M 112.5,240.5 C 138.533,265.201 164.866,289.534 191.5,313.5C 190.809,318.26 189.809,322.926 188.5,327.5C 164.703,305.538 141.036,283.372 117.5,261C 113.273,257.263 108.94,253.763 104.5,250.5C 106.817,246.854 109.484,243.52 112.5,240.5 Z"/></g>
<g><path style="opacity:1" fill="#9c2b88" d="M 363.5,241.5 C 368.165,242.057 372.498,243.39 376.5,245.5C 371.835,244.943 367.502,243.61 363.5,241.5 Z"/></g>
<g><path style="opacity:1" fill="#9f2b88" d="M 376.5,245.5 C 380.162,245.723 383.495,246.723 386.5,248.5C 382.838,248.277 379.505,247.277 376.5,245.5 Z"/></g>
<g><path style="opacity:1" fill="#9a2b88" d="M 386.5,248.5 C 389.152,248.41 391.485,249.076 393.5,250.5C 390.848,250.59 388.515,249.924 386.5,248.5 Z"/></g>
<g><path style="opacity:0.996" fill="#cb1e87" d="M 104.5,250.5 C 108.94,253.763 113.273,257.263 117.5,261C 141.036,283.372 164.703,305.538 188.5,327.5C 188.096,333.547 187.429,339.547 186.5,345.5C 158.703,319.538 131.036,293.371 103.5,267C 101.266,265.25 98.9324,263.75 96.5,262.5C 98.8077,258.205 101.474,254.205 104.5,250.5 Z"/></g>
<g><path style="opacity:0.863" fill="#8a2d88" d="M 409.5,254.5 C 412.495,254.294 415.162,254.96 417.5,256.5C 414.572,256.435 411.905,255.768 409.5,254.5 Z"/></g>
<g><path style="opacity:1" fill="#942c88" d="M 418.5,256.5 C 434.742,258.857 451.076,259.857 467.5,259.5C 470.833,259.5 474.167,259.5 477.5,259.5C 477.5,259.833 477.5,260.167 477.5,260.5C 457.541,261.691 437.874,260.357 418.5,256.5 Z"/></g>
<g><path style="opacity:0.251" fill="#6f3089" d="M 487.5,258.5 C 484.373,259.581 481.04,260.247 477.5,260.5C 477.5,260.167 477.5,259.833 477.5,259.5C 480.786,258.793 484.119,258.46 487.5,258.5 Z"/></g>
<g><path style="opacity:0.999" fill="#d11b87" d="M 96.5,262.5 C 98.9324,263.75 101.266,265.25 103.5,267C 131.036,293.371 158.703,319.538 186.5,345.5C 186.5,350.833 186.5,356.167 186.5,361.5C 157.068,334.905 128.068,307.738 99.5,280C 96.6032,277.59 93.6032,275.423 90.5,273.5C 92.246,269.673 94.246,266.007 96.5,262.5 Z"/></g>
<g><path style="opacity:0.995" fill="#d81a87" d="M 90.5,273.5 C 93.6032,275.423 96.6032,277.59 99.5,280C 128.068,307.738 157.068,334.905 186.5,361.5C 187.494,368.695 188.494,376.029 189.5,383.5C 154.833,351.167 120.167,318.833 85.5,286.5C 86.576,281.939 88.2427,277.605 90.5,273.5 Z"/></g>
<g><path style="opacity:0.994" fill="#df1686" d="M 85.5,286.5 C 120.167,318.833 154.833,351.167 189.5,383.5C 198.779,427.594 222.113,462.094 259.5,487C 265.367,490.6 271.367,493.6 277.5,496C 264.133,482.108 253.633,466.275 246,448.5C 244.203,443.977 243.036,439.31 242.5,434.5C 243.239,434.369 243.906,434.536 244.5,435C 296.729,484.732 349.062,534.232 401.5,583.5C 362.901,591.355 324.234,590.855 285.5,582C 277.866,580.43 270.533,578.263 263.5,575.5C 201.729,517.566 140.062,459.399 78.5,401C 77.184,400.472 76.5173,400.972 76.5,402.5C 74.8989,395.042 73.7322,387.375 73,379.5C 72.3333,365.5 72.3333,351.5 73,337.5C 73.9786,319.558 78.1453,302.558 85.5,286.5 Z"/></g>
<g><path style="opacity:0.977" fill="#692f89" d="M 500.5,365.5 C 519.14,383.139 537.807,400.806 556.5,418.5C 555.588,420.595 554.421,422.595 553,424.5C 549.945,428.624 546.445,432.291 542.5,435.5C 534.473,427.471 526.139,419.805 517.5,412.5C 520.043,409.22 523.043,406.387 526.5,404C 522.472,405.51 518.472,407.343 514.5,409.5C 505.306,400.728 496.306,391.728 487.5,382.5C 491.602,376.615 495.936,370.948 500.5,365.5 Z"/></g>
<g><path style="opacity:0.974" fill="#782e89" d="M 487.5,382.5 C 496.306,391.728 505.306,400.728 514.5,409.5C 507.433,413.861 499.766,416.861 491.5,418.5C 484.202,412.869 477.535,406.536 471.5,399.5C 476.861,393.807 482.195,388.14 487.5,382.5 Z"/></g>
<g><path style="opacity:0.977" fill="#e01986" d="M 263.5,575.5 C 187.005,551.17 128.838,504.17 89,434.5C 84.6074,426.384 80.7741,418.051 77.5,409.5C 77.3259,407.139 76.9926,404.806 76.5,402.5C 76.5173,400.972 77.184,400.472 78.5,401C 140.062,459.399 201.729,517.566 263.5,575.5 Z"/></g>
<g><path style="opacity:0.948" fill="#852e89" d="M 471.5,399.5 C 477.535,406.536 484.202,412.869 491.5,418.5C 476.91,423.223 461.91,424.389 446.5,422C 445.376,421.751 444.376,421.251 443.5,420.5C 453.418,414.245 462.751,407.245 471.5,399.5 Z"/></g>
<g><path style="opacity:0.976" fill="#782e89" d="M 517.5,412.5 C 526.139,419.805 534.473,427.471 542.5,435.5C 537.437,441.196 531.771,446.196 525.5,450.5C 516.833,442.833 508.167,435.167 499.5,427.5C 505.475,422.53 511.475,417.53 517.5,412.5 Z"/></g>
<g><path style="opacity:0.971" fill="#d81a87" d="M 318.5,485.5 C 351.505,517.172 384.839,548.505 418.5,579.5C 413.122,581.593 407.455,582.927 401.5,583.5C 349.062,534.232 296.729,484.732 244.5,435C 243.906,434.536 243.239,434.369 242.5,434.5C 241.398,430.253 241.232,425.92 242,421.5C 264.425,446.779 289.925,468.113 318.5,485.5 Z"/></g>
<g><path style="opacity:0.967" fill="#842e89" d="M 499.5,427.5 C 508.167,435.167 516.833,442.833 525.5,450.5C 520.397,455.225 514.731,459.225 508.5,462.5C 500.167,454.5 491.833,446.5 483.5,438.5C 488.796,434.846 494.129,431.179 499.5,427.5 Z"/></g>
<g><path style="opacity:0.923" fill="#64308a" d="M 576.5,451.5 C 571.873,448.209 567.54,444.542 563.5,440.5C 571.432,434.521 579.432,428.521 587.5,422.5C 588.023,425.509 587.523,428.509 586,431.5C 583.604,438.622 580.437,445.288 576.5,451.5 Z"/></g>
<g><path style="opacity:0.981" fill="#912c88" d="M 483.5,438.5 C 491.833,446.5 500.167,454.5 508.5,462.5C 503.352,465.575 498.019,468.409 492.5,471C 495.826,471.172 499.159,471.005 502.5,470.5C 514.172,482.171 526.172,493.505 538.5,504.5C 536.167,507.5 533.5,510.167 530.5,512.5C 508.167,491.833 485.833,471.167 463.5,450.5C 470.131,446.515 476.798,442.515 483.5,438.5 Z"/></g>
<g><path style="opacity:0.963" fill="#712f89" d="M 563.5,440.5 C 567.54,444.542 571.873,448.209 576.5,451.5C 573.26,458.075 569.594,464.408 565.5,470.5C 558.52,464.523 551.52,458.523 544.5,452.5C 550.656,448.253 556.99,444.253 563.5,440.5 Z"/></g>
<g><path style="opacity:0.989" fill="#992b88" d="M 463.5,450.5 C 485.833,471.167 508.167,491.833 530.5,512.5C 527.167,516.5 523.5,520.167 519.5,523.5C 496.167,501.167 472.833,478.833 449.5,456.5C 454.08,454.306 458.746,452.306 463.5,450.5 Z"/></g>
<g><path style="opacity:0.989" fill="#9f2a88" d="M 449.5,456.5 C 472.833,478.833 496.167,501.167 519.5,523.5C 516.874,525.823 514.207,528.157 511.5,530.5C 486.859,507.528 462.193,484.528 437.5,461.5C 441.429,459.852 445.429,458.185 449.5,456.5 Z"/></g>
<g><path style="opacity:0.975" fill="#7f2e89" d="M 544.5,452.5 C 551.52,458.523 558.52,464.523 565.5,470.5C 561.644,476.891 557.311,482.891 552.5,488.5C 542.882,480.515 533.882,471.848 525.5,462.5C 531.668,458.915 538.001,455.582 544.5,452.5 Z"/></g>
<g><path style="opacity:0.991" fill="#a52887" d="M 437.5,461.5 C 462.193,484.528 486.859,507.528 511.5,530.5C 508.48,533.516 505.146,536.183 501.5,538.5C 475.642,514.398 449.975,490.064 424.5,465.5C 428.818,464.172 433.151,462.839 437.5,461.5 Z"/></g>
<g><path style="opacity:0.983" fill="#ab2787" d="M 424.5,465.5 C 449.975,490.064 475.642,514.398 501.5,538.5C 498.48,541.516 495.146,544.183 491.5,546.5C 479.167,534.5 466.833,522.5 454.5,510.5C 455.067,509.58 454.401,509.246 452.5,509.5C 438.829,495.829 424.829,482.496 410.5,469.5C 414.978,467.877 419.644,466.544 424.5,465.5 Z"/></g>
<g><path style="opacity:0.978" fill="#8a2d89" d="M 525.5,462.5 C 533.882,471.848 542.882,480.515 552.5,488.5C 548.177,494.155 543.51,499.488 538.5,504.5C 526.172,493.505 514.172,482.171 502.5,470.5C 510.093,467.857 517.76,465.19 525.5,462.5 Z"/></g>
<g><path style="opacity:0.979" fill="#b12687" d="M 410.5,469.5 C 424.829,482.496 438.829,495.829 452.5,509.5C 445.595,508.797 438.928,507.464 432.5,505.5C 420.833,494.167 409.167,482.833 397.5,471.5C 401.772,470.51 406.106,469.844 410.5,469.5 Z"/></g>
<g><path style="opacity:0.935" fill="#b72487" d="M 397.5,471.5 C 409.167,482.833 420.833,494.167 432.5,505.5C 410.207,501.025 391.54,490.358 376.5,473.5C 383.488,472.626 390.488,471.959 397.5,471.5 Z"/></g>
<g><path style="opacity:0.985" fill="#d11b87" d="M 318.5,485.5 C 330.297,491.733 342.297,497.4 354.5,502.5C 380.167,527.167 405.833,551.833 431.5,576.5C 427.214,577.707 422.88,578.707 418.5,579.5C 384.839,548.505 351.505,517.172 318.5,485.5 Z"/></g>
<g><path style="opacity:0.986" fill="#cb1e87" d="M 354.5,502.5 C 364.314,505.034 373.98,507.701 383.5,510.5C 403.868,531.202 424.868,551.202 446.5,570.5C 441.571,572.481 436.571,574.481 431.5,576.5C 405.833,551.833 380.167,527.167 354.5,502.5 Z"/></g>
<g><path style="opacity:0.987" fill="#c42187" d="M 383.5,510.5 C 389.833,511.167 396.167,511.833 402.5,512.5C 421.167,530.167 439.833,547.833 458.5,565.5C 454.667,567.556 450.667,569.222 446.5,570.5C 424.868,551.202 403.868,531.202 383.5,510.5 Z"/></g>
<g><path style="opacity:0.981" fill="#b12687" d="M 454.5,510.5 C 466.833,522.5 479.167,534.5 491.5,546.5C 488.083,549.255 484.417,551.588 480.5,553.5C 465.807,539.805 451.141,526.139 436.5,512.5C 442.534,512.114 448.534,511.447 454.5,510.5 Z"/></g>
<g><path style="opacity:0.984" fill="#be2387" d="M 402.5,512.5 C 408.121,513.354 413.788,513.687 419.5,513.5C 436.137,528.802 452.47,544.469 468.5,560.5C 465.48,562.677 462.147,564.343 458.5,565.5C 439.833,547.833 421.167,530.167 402.5,512.5 Z"/></g>
<g><path style="opacity:0.984" fill="#b82487" d="M 436.5,512.5 C 451.141,526.139 465.807,539.805 480.5,553.5C 476.836,556.335 472.836,558.668 468.5,560.5C 452.47,544.469 436.137,528.802 419.5,513.5C 425.227,513.74 430.894,513.407 436.5,512.5 Z"/></g>
</svg>
