<?xml version="1.0" encoding="UTF-8"?>
<!DOCTYPE svg PUBLIC "-//W3C//DTD SVG 1.1//EN" "http://www.w3.org/Graphics/SVG/1.1/DTD/svg11.dtd">
<svg xmlns="http://www.w3.org/2000/svg" version="1.1" width="634px" height="630px" style="shape-rendering:geometricPrecision; text-rendering:geometricPrecision; image-rendering:optimizeQuality; fill-rule:evenodd; clip-rule:evenodd" xmlns:xlink="http://www.w3.org/1999/xlink">
<g><path style="opacity:1" fill="#167abf" d="M -0.5,-0.5 C 210.833,-0.5 422.167,-0.5 633.5,-0.5C 633.5,209.5 633.5,419.5 633.5,629.5C 422.167,629.5 210.833,629.5 -0.5,629.5C -0.5,419.5 -0.5,209.5 -0.5,-0.5 Z"/></g>
<g><path style="opacity:1" fill="#fefefe" d="M 467.5,284.5 C 488.522,282.606 508.856,285.44 528.5,293C 545.128,301.962 558.128,314.628 567.5,331C 553.696,342.5 538.863,352.666 523,361.5C 516.262,355.767 509.762,349.6 503.5,343C 491.756,336.661 479.756,335.994 467.5,341C 455.818,349.05 452.318,359.883 457,373.5C 459.412,377.916 462.578,381.749 466.5,385C 474.181,389.842 482.181,394.175 490.5,398C 514.49,407.158 536.823,419.158 557.5,434C 580.146,455.265 589.313,481.432 585,512.5C 579.989,542.848 563.156,563.682 534.5,575C 526.677,577.941 518.677,580.274 510.5,582C 470.5,588.998 434.5,580.332 402.5,556C 391.731,546.406 383.064,535.239 376.5,522.5C 392.303,512.092 408.636,502.426 425.5,493.5C 434.422,506.588 445.755,517.088 459.5,525C 476.325,531.289 492.992,530.956 509.5,524C 525.242,514.106 528.742,500.939 520,484.5C 517.833,482.333 515.667,480.167 513.5,478C 505.152,472.825 496.485,468.158 487.5,464C 466.37,455.769 446.37,445.436 427.5,433C 399.603,409.99 389.103,380.49 396,344.5C 407.566,309.81 431.4,289.81 467.5,284.5 Z"/></g>
<g><path style="opacity:1" fill="#fefefe" d="M 132.5,287.5 C 208.5,287.5 284.5,287.5 360.5,287.5C 360.5,305.5 360.5,323.5 360.5,341.5C 332.5,341.5 304.5,341.5 276.5,341.5C 276.667,420.834 276.5,500.167 276,579.5C 256.22,580.78 236.386,580.78 216.5,579.5C 216.5,500.167 216.5,420.833 216.5,341.5C 188.5,341.5 160.5,341.5 132.5,341.5C 132.5,323.5 132.5,305.5 132.5,287.5 Z"/></g>
</svg>
