<?xml version="1.0" encoding="UTF-8"?>
<!DOCTYPE svg PUBLIC "-//W3C//DTD SVG 1.1//EN" "http://www.w3.org/Graphics/SVG/1.1/DTD/svg11.dtd">
<svg xmlns="http://www.w3.org/2000/svg" version="1.1" width="634px" height="630px" style="shape-rendering:geometricPrecision; text-rendering:geometricPrecision; image-rendering:optimizeQuality; fill-rule:evenodd; clip-rule:evenodd" xmlns:xlink="http://www.w3.org/1999/xlink">
<g><path style="opacity:0.997" fill="#39b883" d="M -0.5,39.5 C 41.8333,39.5 84.1667,39.5 126.5,39.5C 189.155,149.478 252.321,259.145 316,368.5C 379.502,258.829 443.002,149.162 506.5,39.5C 548.505,39.1668 590.505,39.5001 632.5,40.5C 577.279,137.941 521.279,234.941 464.5,331.5C 451.285,356.127 437.451,380.127 423,403.5C 388.088,465.664 352.422,527.33 316,588.5C 295.275,554.411 275.275,519.745 256,484.5C 241.819,461.837 228.319,438.504 215.5,414.5C 143.084,290.058 71.0837,165.725 -0.5,41.5C -0.5,40.8333 -0.5,40.1667 -0.5,39.5 Z"/></g>
<g><path style="opacity:1" fill="#34495e" d="M 126.5,39.5 C 165.501,39.3333 204.501,39.5 243.5,40C 247.424,45.0167 250.424,50.5167 252.5,56.5C 252.554,58.632 253.554,59.9653 255.5,60.5C 258.001,63.3573 259.668,66.6907 260.5,70.5C 260.5,72.5 261.5,73.5 263.5,73.5C 268.157,82.1548 272.824,90.8215 277.5,99.5C 277.5,100.833 278.167,101.5 279.5,101.5C 282.341,105.849 284.674,110.516 286.5,115.5C 286.5,116.833 287.167,117.5 288.5,117.5C 297.183,133.299 306.35,148.965 316,164.5C 322.087,154.011 328.253,143.678 334.5,133.5C 336.446,132.965 337.446,131.632 337.5,129.5C 338.32,127.188 339.153,124.854 340,122.5C 356.075,94.8347 372.242,67.3347 388.5,40C 427.832,39.5 467.165,39.3333 506.5,39.5C 443.002,149.162 379.502,258.829 316,368.5C 252.321,259.145 189.155,149.478 126.5,39.5 Z"/></g>
<g><path style="opacity:0.686" fill="#367370" d="M 252.5,56.5 C 254.532,57.0478 255.532,58.3812 255.5,60.5C 253.554,59.9653 252.554,58.632 252.5,56.5 Z"/></g>
<g><path style="opacity:0.008" fill="#297774" d="M 260.5,70.5 C 262.19,70.8564 263.19,71.8564 263.5,73.5C 261.5,73.5 260.5,72.5 260.5,70.5 Z"/></g>
<g><path style="opacity:0.416" fill="#35786f" d="M 277.5,99.5 C 278.833,99.5 279.5,100.167 279.5,101.5C 279.5,100.167 278.833,99.5 277.5,99.5 Z"/></g>
<g><path style="opacity:0.506" fill="#347a6d" d="M 286.5,115.5 C 287.833,115.5 288.5,116.167 288.5,117.5C 288.5,116.167 287.833,115.5 286.5,115.5 Z"/></g>
<g><path style="opacity:0.655" fill="#3c736f" d="M 337.5,129.5 C 337.446,131.632 336.446,132.965 334.5,133.5C 334.468,131.381 335.468,130.048 337.5,129.5 Z"/></g>
</svg>
